<?xml version="1.0" standalone="no"?><!DOCTYPE svg PUBLIC "-//W3C//DTD SVG 1.1//EN" "http://www.w3.org/Graphics/SVG/1.1/DTD/svg11.dtd"><svg height="2267" node-id="1" sillyvg="true" template-height="2267" template-width="1601" version="1.1" viewBox="0 0 1601 2267" width="1601" xmlns="http://www.w3.org/2000/svg" xmlns:xlink="http://www.w3.org/1999/xlink"><defs node-id="33"></defs><g node-id="35"><path d="M 117.64 1494.96 L 124.61 1549.60" fill="none" group-id="1" id="路径" node-id="6" stroke="#c9b7b4" stroke-linecap="butt" stroke-width="1" target-height="54.640015" target-width="6.970001" target-x="117.64" target-y="1494.96"></path><path d="M 124.61 1549.60 L 146.68 1648.78 L 147.19 1652.22 L 147.23 1655.58 L 146.80 1658.88 L 145.92 1662.09 L 144.62 1665.11 L 142.91 1667.96 L 140.82 1670.54 L 138.38 1672.82 L 135.54 1674.80 L 123.44 1682.43 L 112.01 1690.37 L 101.22 1698.62 L 91.05 1707.18 L 81.47 1716.06 L 72.47 1725.26 L 64.03 1734.78 L 56.13 1744.63 L 48.76 1754.82 L 41.92 1765.37 L 35.58 1776.28 L 29.76 1787.58 L 24.44 1799.28 L 19.63 1811.39 L 15.33 1823.94 L 11.65 1836.60 L 8.48 1849.54 L 5.84 1862.79 L 3.72 1876.36 L 2.16 1889.95 L 1.10 1903.71 L 0.57 1917.66 L 0.55 1931.80 L 1.05 1945.89 L 2.05 1960.02 L 3.56 1974.20 L 5.58 1988.44 L 8.08 2002.59 L 11.07 2016.64 L 14.55 2030.60 L 18.53 2044.48 L 22.98 2058.22 L 27.91 2071.73 L 33.30 2085.02 L 39.15 2098.10 L 45.50 2110.96 L 52.29 2123.47 L 59.52 2135.64 L 67.20 2147.47 L 75.37 2158.99 L 83.95 2170.05 L 92.96 2180.64 L 102.39 2190.79 L 110.29 2198.60 L 118.44 2206.04 L 126.86 2213.13 L 135.54 2219.86 L 144.49 2226.24 L 153.70 2232.23 L 163.17 2237.79 L 172.91 2242.94 L 182.93 2247.68 L 193.23 2252.00 L 203.66 2255.81 L 214.37 2259.14 L 225.38 2262.00 L 236.70 2264.37 L 248.36 2266.25 L 250.51 2266.33 L 252.56 2266.04 L 254.55 2265.39 L 256.39 2264.40 L 258.01 2263.12 L 259.44 2261.50 L 260.55 2259.65 L 261.29 2257.71 L 261.68 2255.66 L 261.70 2253.57 L 261.36 2251.53 L 260.64 2249.50 L 221.09 2166.03 L 220.55 2164.30 L 220.59 2162.55 L 221.16 2160.89 L 222.26 2159.45 L 223.76 2158.43 L 225.44 2157.95 L 227.19 2158.01 L 228.89 2158.64 L 247.22 2168.39 L 265.44 2177.41 L 283.56 2185.70 L 301.58 2193.29 L 319.51 2200.19 L 337.37 2206.41 L 355.70 2212.16 L 373.91 2217.24 L 392.00 2221.67 L 410.00 2225.46 L 427.89 2228.62 L 445.71 2231.16 L 463.77 2233.13 L 481.71 2234.49 L 499.53 2235.27 L 517.23 2235.45 L 534.84 2235.04 L 552.36 2234.05 L 569.91 2232.48 L 587.32 2230.35 L 604.60 2227.66 L 621.76 2224.42 L 638.81 2220.62 L 655.77 2216.26 L 672.55 2211.37 L 689.19 2205.95 L 705.68 2200.01 L 722.04 2193.53 L 738.27 2186.52 L 754.38 2178.96 L 770.17 2170.96 L 785.79 2162.46 L 801.24 2153.46 L 816.53 2143.94 L 831.66 2133.90 L 846.64 2123.33 L 861.20 2112.42 L 875.55 2101.04 L 889.71 2089.17 L 903.67 2076.80 L 917.43 2063.92 L 931.00 2050.53 L 944.08 2036.92 L 956.93 2022.84 L 969.53 2008.30 L 981.89 1993.27 L 994.02 1977.75 L 1005.91 1961.73 L 1007.10 1959.71 L 1007.84 1957.59 L 1008.15 1955.36 L 1008.04 1953.10 L 1007.49 1950.93 L 1006.49 1948.81 L 1005.07 1946.93 L 1003.40 1945.44 L 1001.46 1944.29 L 999.33 1943.53 L 997.12 1943.20 L 994.77 1943.31 L 965.55 1947.29 L 947.42 1949.50 L 925.74 1951.93 L 902.94 1954.26 L 877.33 1956.60 L 850.87 1958.71 L 822.31 1960.64 L 793.18 1962.23 L 762.68 1963.44 L 731.85 1964.16 L 700.41 1964.34 L 679.38 1964.11 L 658.41 1963.56 L 637.49 1962.70 L 616.59 1961.48 L 596.06 1959.87 L 575.91 1957.89 L 555.80 1955.45 L 536.40 1952.57 L 517.67 1949.27 L 503.60 1946.40 L 490.10 1943.25 L 477.15 1939.85 L 464.74 1936.20 L 452.28 1932.07 L 440.55 1927.66 L 429.50 1922.98 L 419.11 1918.03 L 410.82 1913.63 L 403.07 1909.03 L 395.83 1904.25 L 389.07 1899.29 L 382.78 1894.14 L 376.70 1888.54 L 371.18 1882.72 L 366.19 1876.67 L 361.71 1870.40 L 357.73 1863.88 L 354.26 1857.08 L 351.35 1849.98 L 348.99 1842.55 L 347.18 1834.77 L 345.94 1826.61 L 345.40 1819.95 L 345.29 1812.99 L 345.60 1805.71 L 346.38 1798.08 L 347.64 1790.08 L 349.41 1781.69 L 350.06 1779.87 L 350.98 1778.54 L 352.17 1777.60 L 353.70 1777.01 L 355.66 1776.79 L 402.51 1776.93 L 445.52 1777.49 L 484.93 1778.44 L 520.92 1779.75 L 553.71 1781.37 L 598.50 1783.58 L 642.94 1785.20 L 687.03 1786.25 L 730.78 1786.72 L 774.20 1786.63 L 817.29 1785.97 L 860.05 1784.76 L 902.50 1782.99 L 944.63 1780.68 L 986.45 1777.81 L 1027.97 1774.40 L 1033.06 1773.62 L 1040.03 1771.89 L 1049.37 1768.89 L 1061.57 1764.29 L 1077.21 1757.71 L 1096.91 1748.75 L 1121.33 1736.93 L 1124.59 1735.63 L 1127.90 1734.94 L 1131.32 1734.85 L 1149.88 1736.26 L 1177.08 1738.32 L 1210.54 1740.50 L 1228.71 1741.47 L 1247.89 1742.30 L 1267.27 1742.88 L 1286.77 1743.17 L 1306.17 1743.09 L 1324.80 1742.59 L 1337.15 1741.98 L 1348.74 1741.12 L 1359.62 1740.05 L 1370.49 1738.62 L 1380.20 1736.93 L 1388.85 1735.01 L 1395.41 1733.18 L 1401.08 1731.21 L 1405.96 1729.13 L 1410.13 1726.94 L 1412.44 1725.30 L 1414.27 1723.37 L 1415.68 1721.13 L 1416.69 1718.51 L 1419.50 1708.15 L 1421.53 1698.39 L 1422.83 1689.20 L 1423.45 1680.53 L 1423.44 1672.34 L 1422.82 1664.58 L 1421.63 1657.22 L 1419.89 1650.22 L 1417.59 1643.55 L 1414.75 1637.18 L 1411.36 1631.08 L 1407.39 1625.23 L 1402.82 1619.61 L 1397.63 1614.22 L 1391.77 1609.03 L 1385.18 1604.06 L 1377.83 1599.31 L 1369.65 1594.77 L 1365.39 1592.83 L 1360.83 1591.13 L 1355.96 1589.69 L 1348.47 1587.95 L 1340.61 1586.52 L 1324.72 1584.17 L 1316.85 1582.95 L 1309.39 1581.55 L 1307.01 1580.82 L 1304.94 1579.71 L 1303.14 1578.19 L 1301.58 1576.24 L 1299.33 1572.44 L 1297.63 1568.64 L 1296.45 1564.81 L 1295.76 1560.93 L 1295.56 1556.97 L 1295.86 1552.90 L 1296.68 1548.68 L 1298.04 1544.29 L 1302.86 1530.73 L 1307.28 1517.08 L 1311.28 1503.36 L 1314.89 1489.56 L 1318.09 1475.66 L 1320.89 1461.64 L 1323.24 1447.64 L 1325.14 1433.66 L 1326.60 1419.68 L 1327.62 1405.70 L 1328.18 1391.65 L 1328.26 1377.70 L 1327.85 1363.85 L 1326.97 1350.09 L 1325.61 1336.41 L 1323.74 1322.76 L 1321.34 1309.28 L 1318.43 1295.96 L 1315.01 1282.81 L 1311.06 1269.80 L 1306.57 1256.97 L 1301.52 1244.38 L 1295.91 1232.00 L 1289.72 1219.84 L 1282.96 1207.87 L 1276.95 1198.20 L 1270.51 1188.72 L 1263.64 1179.43 L 1256.32 1170.32 L 1248.55 1161.38 L 1240.31 1152.62 L 1231.87 1144.32 L 1222.95 1136.23 L 1213.53 1128.37 L 1203.59 1120.71 L 1193.12 1113.27 L 1182.11 1106.04 L 1179.80 1104.28 L 1178.08 1102.20 L 1176.87 1099.76 L 1176.17 1096.88 L 1149.11 892.06 L 1149.07 890.05 L 1149.49 888.54 L 1150.31 887.38 L 1151.60 886.51 L 1153.48 885.92 L 1167.66 882.91 L 1181.72 879.45 L 1195.68 875.52 L 1209.53 871.13 L 1223.24 866.34 L 1236.86 861.18 L 1250.39 855.66 L 1263.84 849.77 L 1281.56 841.47 L 1299.12 832.69 L 1316.53 823.44 L 1333.75 813.82 L 1350.82 803.91 L 1367.72 793.71 L 1392.82 778.05 L 1417.52 762.18 L 1418.93 760.98 L 1419.95 759.49 L 1420.57 757.79 L 1420.74 755.94 L 1420.41 754.12 L 1419.66 752.48 L 1418.51 751.08 L 1417.00 750.00 L 1401.28 741.47 L 1400.02 740.61 L 1399.47 739.82 L 1399.41 739.03 L 1399.83 738.12 L 1400.97 736.99 L 1480.90 674.13 L 1483.03 672.09 L 1484.33 670.07 L 1484.96 668.04 L 1484.99 665.92 L 1484.37 663.61 L 1482.98 661.02 L 1477.64 652.58 L 1472.48 643.76 L 1467.52 634.56 L 1462.76 624.97 L 1456.86 612.02 L 1451.29 598.60 L 1446.04 584.70 L 1441.20 570.65 L 1436.66 556.35 L 1432.43 541.82 L 1426.65 519.88 L 1421.50 497.94 L 1416.90 476.02 L 1412.85 454.68 L 1409.22 433.57 L 1406.07 413.64 L 1405.98 411.57 L 1406.35 409.90 L 1407.15 408.53 L 1408.41 407.38 L 1410.23 406.46 L 1424.65 400.52 L 1438.34 394.24 L 1451.34 387.62 L 1463.68 380.69 L 1475.39 373.43 L 1486.48 365.85 L 1496.98 357.96 L 1506.92 349.75 L 1516.31 341.22 L 1525.16 332.37 L 1533.51 323.19 L 1541.35 313.67 L 1548.70 303.81 L 1555.57 293.58 L 1561.96 282.99 L 1567.88 272.01 L 1573.34 260.62 L 1578.32 248.82 L 1582.83 236.58 L 1586.87 223.88 L 1590.42 210.70 L 1593.47 197.02 L 1596.02 182.82 L 1598.05 168.06 L 1599.55 152.73 L 1600.49 136.80 L 1600.31 134.66 L 1599.70 133.17 L 1598.70 132.14 L 1597.25 131.50 L 1595.17 131.28 L 1520.45 131.79 L 1445.73 131.75 L 1371.00 131.17 L 1296.27 130.04 L 1286.47 129.60 L 1276.52 128.61 L 1266.40 127.07 L 1256.10 124.95 L 1245.59 122.23 L 1234.87 118.90 L 1213.08 111.86 L 1191.19 105.35 L 1169.21 99.36 L 1147.13 93.89 L 1124.94 88.93 L 1102.63 84.49 L 1080.21 80.56 L 1057.65 77.15 L 1034.97 74.24 L 1012.15 71.86 L 1010.28 71.48 L 1008.92 70.76 L 1007.95 69.71 L 1007.31 68.28 L 1007.05 66.34 L 1006.64 48.34" fill="none" group-id="1" id="路径" node-id="7" stroke="#bd8e90" stroke-linecap="butt" stroke-width="1" target-height="2217.99" target-width="1599.94" target-x="0.55" target-y="48.34"></path><path d="M 1006.64 48.34 L 1006.08 42.36 L 1004.99 36.71 L 1003.36 31.36 L 1001.21 26.27 L 998.52 21.42 L 995.28 16.78 L 991.44 12.33" fill="none" group-id="1" id="路径" node-id="8" stroke="#c9b7b4" stroke-linecap="butt" stroke-width="1" target-height="36.010002" target-width="15.200012" target-x="991.44" target-y="12.33"></path><path d="M 991.44 12.33 L 985.41 3.38 L 984.01 1.77 L 982.60 0.86 L 981.13 0.51 L 979.49 0.69 L 977.60 1.50 L 926.72 31.34 L 875.61 60.93 L 865.44 66.45 L 854.00 72.08 L 829.54 83.22 L 803.76 94.95 L 790.84 101.22 L 778.20 107.85 L 769.93 112.54 L 761.99 117.42 L 754.38 122.51 L 747.03 127.93 L 740.19 133.60 L 733.86 139.51 L 719.34 154.47 L 704.76 170.18 L 690.13 186.68 L 668.54 211.97 L 646.67 238.48 L 602.56 292.99 L 580.02 320.61 L 556.88 348.32 L 541.17 366.61 L 525.11 384.69 L 508.71 402.56 L 491.95 420.08 L 474.75 437.16 L 457.13 453.81 L 455.77 455.37 L 455.04 456.91 L 454.82 458.48 L 455.10 460.16 L 455.98 462.03 L 487.73 512.92 L 489.30 515.91 L 489.83 517.86 L 489.71 519.12 L 489.11 519.97 L 487.97 520.51 L 485.96 520.67 L 482.63 520.21 L 462.02 515.94 L 460.10 515.72 L 458.25 515.86 L 456.45 516.36 L 454.78 517.18 L 453.30 518.29 L 452.00 519.72 L 451.01 521.38 L 450.37 523.12 L 450.08 524.96 L 450.13 526.83 L 450.53 528.63 L 451.30 530.41 L 456.98 540.19 L 463.08 549.60 L 469.60 558.63 L 476.56 567.31 L 483.96 575.64 L 491.80 583.63 L 500.11 591.29 L 501.53 592.83 L 502.18 594.12 L 502.30 595.25 L 501.93 596.32 L 501.00 597.42 L 499.28 598.58 L 481.64 608.71 L 464.51 619.18 L 447.87 630.00 L 431.71 641.15 L 416.02 652.65 L 400.79 664.48 L 385.78 676.83 L 371.22 689.48 L 357.10 702.43 L 343.42 715.68 L 330.18 729.24 L 317.36 743.10 L 304.86 757.36 L 292.78 771.87 L 281.11 786.64 L 269.85 801.69 L 258.99 817.00 L 248.53 832.59 L 238.45 848.45 L 228.76 864.52 L 219.46 880.82 L 210.54 897.35 L 202.01 914.11 L 193.86 931.12 L 184.61 951.73 L 175.89 972.60 L 167.70 993.74 L 160.05 1015.15 L 152.93 1036.84 L 146.36 1058.66 L 140.31 1080.68 L 134.78 1102.89 L 129.77 1125.30 L 125.27 1147.92 L 121.31 1170.61 L 117.85 1193.40 L 114.88 1216.32 L 112.43 1239.36 L 110.47 1262.53 L 109.02 1285.71 L 108.05 1308.93 L 107.57 1332.18 L 107.58 1355.48 L 108.07 1378.82 L 109.05 1402.14 L 110.49 1425.42 L 112.40 1448.64 L 114.79 1471.82 L 117.64 1494.96" fill="none" group-id="1" id="路径" node-id="9" stroke="#bd8e90" stroke-linecap="butt" stroke-width="1" target-height="1494.45" target-width="883.87" target-x="107.57" target-y="0.51"></path><path d="M 991.44 12.33 L 992.33 18.65 L 993.66 24.52 L 995.43 29.98 L 997.60 35.06 L 1000.19 39.80 L 1003.20 44.22 L 1006.64 48.34" fill="none" group-id="1" id="路径" node-id="10" stroke="#874645" stroke-linecap="butt" stroke-width="1" target-height="36.010002" target-width="15.200012" target-x="991.44" target-y="12.33"></path><path d="M 124.61 1549.60 L 125.21 1541.53 L 125.27 1533.58 L 124.81 1525.72 L 123.81 1517.95 L 122.29 1510.24 L 120.24 1502.59 L 117.64 1494.96" fill="none" group-id="1" id="路径" node-id="11" stroke="#874645" stroke-linecap="butt" stroke-width="1" target-height="54.640015" target-width="7.6299973" target-x="117.64" target-y="1494.96"></path><path d="M 922.44 62.39 L 921.49 63.13 L 920.86 64.10 L 920.58 65.22 L 920.68 66.42 L 921.19 67.51 L 921.99 68.35 L 923.02 68.88 L 924.21 69.05 L 978.33 69.67 L 979.79 69.37 L 980.99 68.49 L 981.73 67.20 L 981.87 65.72 L 977.91 35.43 L 977.69 34.58 L 977.28 33.82 L 976.70 33.19 L 975.96 32.70 L 975.13 32.42 L 974.27 32.34 L 973.41 32.48 L 972.60 32.83 L 922.44 62.39" fill="none" group-id="1" id="路径" node-id="12" stroke="#874645" stroke-linecap="butt" stroke-width="1" target-height="37.329998" target-width="61.289978" target-x="920.58" target-y="32.34"></path><path d="M 45.72 1821.96 L 41.65 1836.65 L 38.19 1851.53 L 35.32 1866.60 L 33.06 1881.88 L 31.41 1897.22 L 30.38 1912.61 L 29.94 1928.06 L 30.12 1943.58 L 30.91 1959.07 L 32.30 1974.47 L 34.30 1989.79 L 36.91 2005.03 L 39.44 2017.16 L 42.35 2029.13 L 45.66 2040.96 L 49.35 2052.65 L 53.43 2064.21 L 57.91 2075.64 L 62.78 2086.83 L 68.02 2097.79 L 73.66 2108.54 L 79.68 2119.08 L 86.11 2129.38 L 92.92 2139.38 L 100.11 2149.08 L 107.70 2158.48 L 115.68 2167.61 L 124.03 2176.37 L 132.77 2184.76 L 141.90 2192.78 L 151.45 2200.45 L 161.43 2207.77 L 171.65 2214.58 L 182.30 2220.95 L 193.38 2226.91 L 204.92 2232.43 L 216.93 2237.53 L 218.47 2237.88 L 220.01 2237.76 L 221.44 2237.19 L 222.68 2236.20 L 223.56 2234.87 L 223.99 2233.40 L 223.97 2231.86 L 223.48 2230.35 L 217.55 2218.81 L 209.68 2203.12 L 205.43 2194.32 L 201.07 2184.89 L 196.86 2175.31 L 192.93 2165.75 L 189.38 2156.20 L 186.49 2147.30 L 184.86 2141.35 L 183.70 2135.99 L 182.95 2131.18 L 182.61 2126.31 L 182.83 2122.29 L 183.52 2118.99 L 184.32 2117.17 L 185.49 2115.61 L 186.97 2114.35 L 188.75 2113.43 L 190.69 2112.94 L 192.65 2112.89 L 194.59 2113.28 L 196.42 2114.10 L 213.82 2124.22 L 231.22 2133.74 L 248.64 2142.65 L 266.07 2150.98 L 283.53 2158.73 L 301.01 2165.91 L 318.89 2172.65 L 336.73 2178.80 L 354.54 2184.36 L 372.33 2189.33 L 390.11 2193.72 L 407.88 2197.55 L 425.90 2200.85 L 443.85 2203.56 L 461.74 2205.68 L 479.57 2207.22 L 497.37 2208.18 L 515.13 2208.56 L 532.95 2208.36 L 550.68 2207.56 L 568.32 2206.17 L 585.89 2204.20 L 603.39 2201.62 L 620.83 2198.46 L 638.13 2194.71 L 655.31 2190.35 L 672.39 2185.38 L 689.37 2179.81 L 706.27 2173.61 L 723.10 2166.78 L 739.54 2159.44 L 755.86 2151.46 L 772.06 2142.85 L 788.14 2133.58 L 804.12 2123.65 L 820.00 2113.04 L 833.12 2103.68 L 846.13 2093.82 L 859.04 2083.46 L 871.84 2072.59 L 884.54 2061.19 L 897.14 2049.25 L 909.64 2036.77" fill="none" group-id="1" id="路径" node-id="13" stroke="#bc8b8b" stroke-linecap="butt" stroke-width="1" target-height="415.91992" target-width="879.7" target-x="29.94" target-y="1821.96"></path><path d="M 909.64 2036.77 L 960.01 1982.24 L 961.33 1980.50 L 961.80 1979.28 L 961.73 1978.38 L 961.20 1977.66 L 960.05 1977.05 L 957.93 1976.62 L 952.53 1976.28 L 946.82 1976.52 L 941.08 1977.17 L 935.40 1978.10 L 924.68 1980.19 L 919.75 1981.08 L 915.68 1981.61 L 884.32 1984.33 L 865.10 1985.77 L 842.33 1987.25 L 818.49 1988.55 L 791.94 1989.67 L 764.61 1990.46 L 735.37 1990.87 L 705.66 1990.79 L 674.86 1990.13 L 654.23 1989.33 L 633.49 1988.20 L 612.64 1986.73 L 591.83 1984.89 L 571.26 1982.63 L 550.95 1979.97 L 530.70 1976.82 L 511.06 1973.21 L 492.00 1969.13 L 477.73 1965.65 L 463.99 1961.88 L 450.77 1957.82 L 438.05 1953.49 L 425.34 1948.65 L 413.34 1943.51 L 402.00 1938.07 L 391.31 1932.33 L 382.84 1927.28 L 374.89 1922.01 L 367.46 1916.53 L 360.51 1910.85 L 354.02 1904.95 L 347.81 1898.60 L 342.17 1892.01 L 337.07 1885.15 L 332.48 1878.03 L 328.41 1870.62 L 325.46 1864.27 L 322.90 1857.68 L 320.74 1850.85 L 318.99 1843.74 L 317.65 1836.34 L 316.72 1828.64 L 316.27 1821.16 L 316.27 1813.35 L 316.73 1805.19 L 317.68 1796.63 L 319.15 1787.67 L 321.17 1778.28 L 323.48 1769.52 L 326.34 1760.33 L 329.78 1750.70 L 333.84 1740.58 L 338.57 1729.97 L 344.00 1718.83 L 345.83 1715.82 L 347.77 1713.58 L 349.84 1711.97 L 352.04 1710.90 L 354.43 1710.33 L 357.07 1710.22 L 360.02 1710.63 L 363.36 1711.64 L 365.28 1712.58 L 366.63 1713.68 L 367.52 1714.94 L 368.01 1716.42 L 368.11 1718.16 L 367.73 1720.28 L 361.38 1742.76 L 361.04 1744.77 L 361.17 1746.27 L 361.69 1747.39 L 362.59 1748.25 L 363.95 1748.88 L 365.96 1749.22 L 411.56 1751.96 L 457.11 1754.17 L 502.64 1755.86 L 548.13 1757.02 L 593.59 1757.65 L 639.02 1757.75 L 684.42 1757.33" fill="none" group-id="1" id="路径" node-id="14" stroke="#874645" stroke-linecap="butt" stroke-width="1" target-height="326.55005" target-width="645.53" target-x="316.27" target-y="1710.22"></path><path d="M 684.42 1757.33 L 718.04 1758.74 L 751.64 1759.62 L 785.20 1759.98 L 818.75 1759.81 L 852.28 1759.13 L 885.81 1757.92 L 919.32 1756.19 L 943.45 1754.46 L 965.48 1752.36 L 985.55 1749.93 L 1003.78 1747.20 L 1020.29 1744.20 L 1035.20 1740.98 L 1048.62 1737.55 L 1060.67 1733.95 L 1071.45 1730.20 L 1081.05 1726.32 L 1094.31 1720.22 L 1107.17 1713.70 L 1119.63 1706.74 L 1131.72 1699.36 L 1143.44 1691.53 L 1154.90 1683.23 L 1165.94 1674.55 L 1176.58 1665.52 L 1186.82 1656.12 L 1196.68 1646.34 L 1206.17 1636.17 L 1215.23 1625.70 L 1223.86 1614.94 L 1232.08 1603.87 L 1239.87 1592.48 L 1247.24 1580.81 L 1254.15 1568.90 L 1260.60 1556.76 L 1266.60 1544.37 L 1272.15 1531.73 L 1277.22 1518.90 L 1281.80 1505.90 L 1285.90 1492.73 L 1289.51 1479.38 L 1292.63 1465.83 L 1295.24 1452.20 L 1297.33 1438.47 L 1298.89 1424.63 L 1299.93 1410.65 L 1300.45 1396.55 L 1300.42 1382.49 L 1299.84 1368.38 L 1298.70 1354.20 L 1296.99 1339.96 L 1294.71 1325.63" fill="none" group-id="1" id="路径" node-id="15" stroke="#bc8b8b" stroke-linecap="butt" stroke-width="1" target-height="434.34998" target-width="616.02997" target-x="684.42" target-y="1325.63"></path><path d="M 1294.71 1325.63 L 1292.75 1313.98 L 1290.41 1302.58 L 1287.69 1291.40 L 1284.59 1280.45 L 1281.12 1269.71 L 1277.23 1259.03 L 1272.99 1248.66 L 1268.43 1238.59 L 1263.53 1228.80 L 1258.31 1219.29 L 1252.66 1209.93 L 1246.73 1200.94 L 1240.52 1192.31 L 1234.01 1184.03 L 1227.20 1176.08 L 1220.02 1168.40 L 1212.59 1161.14 L 1204.90 1154.29 L 1196.96 1147.84 L 1188.75 1141.79 L 1180.24 1136.13 L 1171.51 1130.93 L 1162.55 1126.21 L 1153.35 1121.93 L 1143.90 1118.11 L 1134.29 1114.80 L 1124.47 1112.01 L 1114.42 1109.74 L 1104.13 1107.98 L 1093.58 1106.75 L 1083.10 1106.10 L 1072.40 1106.02 L 1061.45 1106.54 L 1050.23 1107.66 L 1038.73 1109.41 L 1027.58 1111.69 L 1016.18 1114.64 L 1004.51 1118.29 L 992.56 1122.66 L 980.31 1127.79 L 962.57 1136.01 L 945.10 1144.71 L 927.89 1153.88 L 910.93 1163.53 L 894.22 1173.66 L 877.76 1184.27 L 861.53 1195.38 L 845.53 1206.99 L 843.88 1207.99 L 842.09 1208.61 L 840.20 1208.85 L 838.27 1208.68 L 836.42 1208.11 L 834.74 1207.19 L 833.29 1205.94 L 832.11 1204.39 L 830.99 1202.02 L 830.38 1199.63 L 830.23 1197.16 L 830.56 1194.58 L 831.42 1191.83 L 832.93 1188.67 L 835.08 1185.29 L 837.96 1181.66 L 841.69 1177.75 L 846.89 1173.04 L 853.13 1168.05 L 860.54 1162.76 L 868.13 1157.80 L 876.46 1152.71 L 885.60 1147.49 L 899.59 1140.02 L 914.48 1132.58 L 929.63 1125.44 L 944.81 1118.64 L 959.94 1112.16 L 974.22 1106.29 L 988.12 1100.80 L 1000.31 1096.18 L 1011.81 1091.99 L 1020.72 1088.91 L 1028.65 1086.36 L 1033.07 1085.12" fill="none" group-id="1" id="路径" node-id="16" stroke="#874645" stroke-linecap="butt" stroke-width="1" target-height="240.51001" target-width="464.47998" target-x="830.23" target-y="1085.12"></path><path d="M 1033.07 1085.12 L 1047.64 1083.36 L 1061.88 1082.27 L 1075.80 1081.81 L 1089.42 1081.97 L 1102.77 1082.74 L 1115.85 1084.12 L 1128.69 1086.10 L 1141.31 1088.66 L 1143.41 1088.92 L 1144.86 1088.70 L 1145.85 1088.12 L 1146.53 1087.17 L 1146.89 1085.72 L 1146.82 1083.56 L 1118.52 865.32" fill="none" group-id="1" id="路径" node-id="17" stroke="#bc8b8b" stroke-linecap="butt" stroke-width="1" target-height="223.60004" target-width="113.82007" target-x="1033.07" target-y="865.32"></path><path d="M 1118.52 865.32 L 1118.18 860.22 L 1117.49 853.02 L 1115.60 836.15 L 1113.58 816.76 L 1112.74 806.73 L 1112.14 796.93 L 1111.86 787.32 L 1112.00 778.72 L 1112.39 773.09 L 1113.03 768.28 L 1113.88 764.20 L 1114.84 761.13 L 1115.94 758.71 L 1117.17 756.84 L 1118.52 755.41 L 1120.52 754.17 L 1122.72 753.51 L 1125.02 753.45 L 1127.31 754.01 L 1129.37 755.16 L 1131.00 756.77 L 1132.16 758.76 L 1132.77 761.03 L 1144.22 854.60 L 1144.69 856.55 L 1145.48 857.91 L 1146.59 858.84 L 1148.06 859.38 L 1150.05 859.49 L 1157.67 858.84 L 1165.58 857.78 L 1173.79 856.29 L 1182.31 854.34 L 1193.47 851.30 L 1204.95 847.67 L 1216.75 843.44 L 1228.40 838.83 L 1240.13 833.82 L 1251.94 828.42 L 1269.40 819.88 L 1286.47 810.94 L 1303.19 801.72 L 1318.93 792.65 L 1334.17 783.57 L 1347.89 775.19 L 1350.11 773.54 L 1351.50 771.95 L 1352.25 770.38 L 1352.47 768.79 L 1352.16 767.08 L 1351.25 765.18 L 1349.56 763.01 L 1348.44 762.13 L 1347.07 761.49 L 1345.37 761.09 L 1342.67 760.87 L 1339.52 760.89 L 1333.00 761.03 L 1329.77 760.81 L 1326.82 760.18 L 1325.00 759.44 L 1323.40 758.37 L 1321.98 756.95 L 1320.90 755.26 L 1320.05 753.00 L 1319.48 750.00 L 1319.50 747.71 L 1320.01 745.89 L 1320.99 744.42 L 1322.47 743.22 L 1324.58 742.30 L 1337.37 737.95 L 1349.79 733.12 L 1361.87 727.80 L 1373.62 722.00 L 1385.05 715.71 L 1396.17 708.93 L 1406.99 701.65 L 1417.53 693.87 L 1427.79 685.57 L 1437.77 676.74 L 1447.49 667.37 L 1448.75 665.78 L 1449.50 664.18 L 1449.80 662.52 L 1449.67 660.76 L 1449.05 658.83 L 1439.61 636.10 L 1430.77 613.22 L 1422.53 590.20 L 1414.88 567.02 L 1407.83 543.69 L 1401.36 520.18 L 1395.49 496.51 L 1390.20 472.65 L 1385.50 448.60 L 1381.39 424.35 L 1377.87 399.90 L 1377.71 396.72 L 1378.07 394.04 L 1378.90 391.75 L 1380.17 389.77 L 1381.92 388.07 L 1384.24 386.62 L 1387.23 385.43 L 1401.48 380.74 L 1415.00 375.65 L 1427.83 370.16 L 1439.99 364.29 L 1451.52 358.04 L 1462.44 351.43 L 1472.77 344.44 L 1482.56 337.09 L 1491.80 329.36 L 1500.53 321.26 L 1508.75 312.77 L 1516.49 303.90 L 1523.75 294.62 L 1530.54 284.92 L 1536.87 274.79 L 1542.74 264.21 L 1548.15 253.15 L 1553.11 241.60 L 1557.60 229.54 L 1561.61 216.93 L 1565.14 203.76 L 1568.18 189.98 L 1570.70 175.58 L 1572.69 160.53 L 1572.70 158.48 L 1572.31 156.98 L 1571.60 155.87 L 1570.56 155.07 L 1569.10 154.56 L 1567.07 154.39 L 1507.62 155.38 L 1448.19 155.75 L 1388.79 155.53 L 1329.41 154.69 L 1270.05 153.24 L 1260.70 152.71 L 1251.14 151.63 L 1241.36 149.99 L 1231.34 147.77 L 1221.07 144.94 L 1210.52 141.48 L 1196.62 136.75 L 1181.66 131.99 L 1165.60 127.21 L 1149.48 122.75 L 1132.60 118.44 L 1114.92 114.28 L 1097.18 110.48 L 1078.98 106.99 L 1060.31 103.81 L 1041.58 101.07 L 1022.68 98.78 L 1003.61 96.94 L 984.50 95.64 L 965.52 94.92 L 946.66 94.80 L 932.48 95.12 L 918.53 95.85 L 904.80 96.98 L 891.28 98.50 L 877.75 100.48 L 864.60 102.93 L 851.79 105.83 L 839.32 109.17 L 829.39 112.27 L 819.76 115.70 L 810.43 119.45 L 801.39 123.54 L 792.62 127.95 L 784.02 132.79 L 775.77 138.01 L 767.86 143.60 L 760.27 149.58 L 753.01 155.95 L 741.51 167.12 L 726.83 182.36 L 708.39 202.49 L 685.57 228.40 L 657.69 261.05 L 624.04 301.50 L 583.82 350.86 L 536.22 410.31 L 525.85 422.89 L 515.95 434.04 L 506.51 443.86 L 497.51 452.46 L 494.67 455.38 L 492.65 458.25 L 491.33 461.11 L 490.64 463.98 L 490.54 466.94 L 491.05 470.04 L 492.23 473.35 L 494.18 476.91 L 534.66 540.29 L 535.61 542.18 L 536.05 543.97 L 536.03 545.73 L 535.55 547.50 L 534.56 549.35 L 531.96 552.68 L 529.36 555.15 L 526.74 556.88 L 524.06 557.99 L 521.29 558.51 L 518.36 558.45 L 515.21 557.79 L 511.77 556.43 L 507.39 554.55 L 504.86 553.87 L 503.52 553.88 L 502.87 554.27 L 502.63 554.98 L 502.88 556.30 L 504.05 558.64 L 506.77 562.57 L 510.22 566.67 L 514.00 570.39 L 518.10 573.75 L 522.55 576.76 L 527.38 579.43 L 530.08 580.47 L 532.72 580.86 L 535.37 580.62 L 538.10 579.74 L 556.70 571.92 L 575.44 564.72 L 594.32 558.12 L 613.34 552.13 L 632.52 546.73 L 651.86 541.92 L 671.38 537.71 L 691.07 534.09 L 710.96 531.07 L 731.05 528.64 L 733.39 528.61 L 735.63 528.96 L 737.79 529.68 L 739.81 530.74 L 741.61 532.12 L 743.23 533.84 L 745.46 537.13 L 746.65 539.78 L 747.07 541.94 L 746.89 543.74 L 746.17 545.31 L 744.85 546.72 L 742.76 548.00 L 739.66 549.11 L 735.21 549.97 L 714.40 553.09 L 693.99 556.77 L 673.98 561.00 L 654.36 565.78 L 635.11 571.10 L 616.22 576.96 L 597.68 583.36 L 579.16 590.41 L 561.01 597.98 L 543.23 606.07 L 525.80 614.69 L 508.71 623.83 L 491.95 633.49 L 475.52 643.69 L 459.42 654.41 L 443.66 665.63 L 428.24 677.37 L 413.15 689.62 L 398.38 702.39 L 383.93 715.70 L 369.80 729.55 L 356.21 743.69 L 342.96 758.34 L 330.03 773.50 L 317.43 789.18 L 305.15 805.41 L 293.19 822.18 L 281.56 839.51 L 270.15 857.47 L 259.28 875.44 L 248.94 893.45 L 239.11 911.48 L 229.78 929.54 L 220.96 947.63 L 212.63 965.77 L 203.34 987.37 L 194.69 1009.02 L 186.66 1030.72 L 179.25 1052.50 L 172.45 1074.35 L 166.26 1096.27 L 160.61 1118.42 L 155.53 1140.65 L 151.01 1162.96 L 147.04 1185.36 L 143.63 1207.86 L 140.77 1230.46 L 138.45 1253.09 L 136.64 1275.81 L 135.33 1298.64 L 134.54 1321.57 L 134.25 1344.61 L 134.48 1367.77 L 135.19 1390.81 L 136.36 1413.95 L 137.99 1437.20 L 140.10 1460.56 L 142.67 1484.04 L 145.71 1507.64 L 149.90 1535.71 L 154.70 1563.93 L 160.11 1592.29 L 166.14 1620.82 L 172.80 1649.51 L 173.15 1650.46 L 173.70 1651.27 L 174.44 1651.94 L 175.33 1652.43 L 176.31 1652.70 L 177.32 1652.73 L 178.31 1652.54 L 179.25 1652.11 L 187.34 1647.53 L 199.51 1641.26 L 206.58 1637.89 L 214.35 1634.40 L 222.32 1631.08 L 230.44 1628.00 L 238.60 1625.27 L 246.37 1623.12 L 251.57 1621.99 L 256.35 1621.24 L 260.73 1620.85 L 265.11 1620.86 L 268.87 1621.35 L 272.09 1622.25 L 274.34 1623.31 L 276.23 1624.67 L 277.79 1626.35 L 279.06 1628.39 L 279.81 1630.53 L 280.08 1632.74 L 279.87 1634.96 L 279.18 1637.11 L 278.03 1639.06 L 276.52 1640.67 L 274.69 1641.92 L 272.60 1642.75 L 257.92 1646.94 L 243.43 1651.57 L 229.12 1656.64 L 214.99 1662.16 L 201.05 1668.16 L 187.45 1674.64 L 174.20 1681.60 L 161.27 1689.03 L 151.14 1695.38 L 141.33 1702.06 L 131.81 1709.08 L 122.60 1716.43 L 113.67 1724.12 L 105.07 1732.18 L 96.86 1740.60 L 89.01 1749.41 L 81.53 1758.60 L 74.42 1768.19 L 67.80 1778.04 L 61.63 1788.32 L 55.89 1799.06 L 50.59 1810.26 L 45.72 1821.96" fill="none" group-id="1" id="路径" node-id="18" stroke="#874645" stroke-linecap="butt" stroke-width="1" target-height="1727.1599" target-width="1526.98" target-x="45.72" target-y="94.8"></path><path d="M 1118.52 865.32 L 1112.16 865.39 L 1106.24 866.01 L 1100.70 867.15 L 1095.50 868.79 L 1090.43 870.95 L 1085.64 873.51 L 1081.12 876.47 L 1076.85 879.85 L 1071.55 884.85 L 1066.64 890.36 L 1062.11 896.42 L 1058.00 902.80 L 1054.24 909.47 L 1050.82 916.44 L 1047.74 923.58 L 1044.98 930.71 L 1042.54 937.86 L 1038.61 951.09 L 1035.30 964.32 L 1032.62 977.55 L 1030.54 990.80 L 1029.08 1004.08 L 1028.22 1017.40 L 1027.97 1030.78 L 1028.32 1044.23 L 1029.28 1057.76 L 1030.86 1071.38 L 1033.07 1085.12" fill="none" group-id="1" id="路径" node-id="19" stroke="#c7b4af" stroke-linecap="butt" stroke-width="1" target-height="219.79999" target-width="90.55005" target-x="1027.97" target-y="865.32"></path><path d="M 1294.71 1325.63 L 1290.05 1341.05 L 1285.00 1356.08 L 1279.56 1370.74 L 1273.74 1385.03 L 1267.53 1398.97 L 1260.95 1412.57 L 1253.88 1426.08 L 1246.48 1439.25 L 1238.75 1452.11 L 1230.68 1464.64 L 1222.27 1476.87 L 1213.52 1488.79 L 1202.54 1502.80 L 1191.14 1516.39 L 1179.33 1529.56 L 1167.09 1542.33 L 1154.42 1554.69 L 1141.37 1566.66 L 1127.97 1578.24 L 1114.22 1589.43 L 1100.12 1600.24 L 1085.64 1610.68 L 1070.91 1620.70 L 1055.90 1630.36 L 1040.61 1639.65 L 1025.04 1648.57 L 1009.18 1657.14 L 989.10 1667.30 L 968.72 1676.90 L 948.03 1685.96 L 927.03 1694.46 L 905.81 1702.41 L 884.43 1709.82 L 862.89 1716.70 L 841.18 1723.04 L 819.31 1728.88 L 797.43 1734.20 L 775.54 1739.00 L 753.63 1743.28 L 716.93 1750.25 L 695.51 1754.68 L 684.42 1757.33" fill="none" group-id="1" id="路径" node-id="20" stroke="#c7b4af" stroke-linecap="butt" stroke-width="1" target-height="431.69995" target-width="610.29" target-x="684.42" target-y="1325.63"></path><path d="M 909.64 2036.77 L 887.24 2048.02 L 864.71 2058.84 L 842.04 2069.24 L 819.24 2079.22 L 796.21 2088.78 L 773.18 2097.79 L 750.13 2106.26 L 727.07 2114.19 L 703.78 2121.63 L 680.59 2128.41 L 657.51 2134.55 L 634.53 2140.05 L 615.95 2144.03 L 597.51 2147.52 L 579.20 2150.53 L 561.03 2153.07 L 542.99 2155.15 L 524.77 2156.76 L 506.75 2157.83 L 488.92 2158.36 L 471.28 2158.37 L 453.82 2157.86 L 436.27 2156.77 L 418.97 2155.09 L 401.90 2152.82 L 385.05 2149.97 L 368.40 2146.53 L 354.59 2143.17 L 340.97 2139.35 L 327.51 2135.08 L 314.22 2130.36 L 301.09 2125.17 L 288.11 2119.52 L 275.39 2113.44 L 262.85 2106.84 L 250.47 2099.73 L 238.27 2092.09 L 226.21 2083.92 L 214.31 2075.20 L 202.91 2066.18 L 191.68 2056.57 L 180.62 2046.36 L 169.72 2035.53 L 158.98 2024.06 L 148.40 2011.93 L 138.51 1999.75 L 128.80 1986.88 L 119.26 1973.31 L 109.91 1959.00 L 100.73 1943.93 L 91.75 1928.06 L 83.54 1912.48 L 75.54 1896.09 L 67.75 1878.88 L 60.18 1860.81 L 52.83 1841.85 L 45.72 1821.96" fill="none" group-id="1" id="路径" node-id="21" stroke="#c7b4af" stroke-linecap="butt" stroke-width="1" target-height="336.41016" target-width="863.92004" target-x="45.72" target-y="1821.96"></path><path d="M 1291.17 1600.91 L 1281.91 1591.54 L 1279.88 1589.91 L 1278.13 1589.15 L 1276.58 1589.05 L 1275.10 1589.53 L 1273.60 1590.70 L 1272.03 1592.79 L 1263.64 1606.01 L 1254.84 1618.77 L 1245.60 1631.10 L 1235.94 1642.99 L 1225.84 1654.46 L 1215.29 1665.53 L 1204.29 1676.19 L 1192.83 1686.45 L 1180.89 1696.33 L 1168.47 1705.82 L 1165.52 1708.28 L 1164.03 1710.02 L 1163.47 1711.25 L 1163.50 1712.16 L 1164.02 1712.92 L 1165.20 1713.58 L 1167.43 1714.11 L 1171.28 1714.35 L 1377.45 1715.70 L 1381.31 1715.38 L 1384.87 1714.48 L 1388.19 1713.00 L 1391.24 1711.00 L 1393.87 1708.59 L 1396.13 1705.74 L 1397.88 1702.56 L 1399.08 1699.10 L 1399.72 1695.30 L 1400.23 1685.73 L 1400.16 1677.24 L 1399.59 1669.72 L 1398.56 1663.08 L 1396.92 1656.32 L 1394.87 1650.32 L 1392.43 1644.99 L 1389.63 1640.28 L 1386.29 1635.82 L 1382.61 1631.81 L 1378.56 1628.20 L 1374.12 1625.00 L 1369.44 1622.20 L 1364.41 1619.65 L 1359.02 1617.36 L 1353.24 1615.35 L 1345.43 1613.10 L 1337.09 1611.11 L 1328.17 1609.41 L 1314.59 1607.26 L 1300.12 1605.28 L 1297.60 1604.73 L 1295.28 1603.82 L 1293.15 1602.56 L 1291.17 1600.91" fill="none" group-id="1" id="路径" node-id="22" stroke="#bc8b8b" stroke-linecap="butt" stroke-width="1" target-height="126.6499" target-width="236.76001" target-x="1163.47" target-y="1589.05"></path><path d="M 991.44 12.33 L 992.33 18.65 L 993.66 24.52 L 995.43 29.98 L 997.60 35.06 L 1000.19 39.80 L 1003.20 44.22 L 1006.64 48.34 L 1007.05 66.34 L 1007.31 68.28 L 1007.95 69.71 L 1008.92 70.76 L 1010.28 71.48 L 1012.15 71.86 L 1034.97 74.24 L 1057.65 77.15 L 1080.21 80.56 L 1102.63 84.49 L 1124.94 88.93 L 1147.13 93.89 L 1169.21 99.36 L 1191.19 105.35 L 1213.08 111.86 L 1234.87 118.90 L 1245.59 122.23 L 1256.10 124.95 L 1266.40 127.07 L 1276.52 128.61 L 1286.47 129.60 L 1296.27 130.04 L 1371.00 131.17 L 1445.73 131.75 L 1520.45 131.79 L 1595.17 131.28 L 1597.25 131.50 L 1598.70 132.14 L 1599.70 133.17 L 1600.31 134.66 L 1600.49 136.80 L 1599.55 152.73 L 1598.05 168.06 L 1596.02 182.82 L 1593.47 197.02 L 1590.42 210.70 L 1586.87 223.88 L 1582.83 236.58 L 1578.32 248.82 L 1573.34 260.62 L 1567.88 272.01 L 1561.96 282.99 L 1555.57 293.58 L 1548.70 303.81 L 1541.35 313.67 L 1533.51 323.19 L 1525.16 332.37 L 1516.31 341.22 L 1506.92 349.75 L 1496.98 357.96 L 1486.48 365.85 L 1475.39 373.43 L 1463.68 380.69 L 1451.34 387.62 L 1438.34 394.24 L 1424.65 400.52 L 1410.23 406.46 L 1408.41 407.38 L 1407.15 408.53 L 1406.35 409.90 L 1405.98 411.57 L 1406.07 413.64 L 1409.22 433.57 L 1412.85 454.68 L 1416.90 476.02 L 1421.50 497.94 L 1426.65 519.88 L 1432.43 541.82 L 1436.66 556.35 L 1441.20 570.65 L 1446.04 584.70 L 1451.29 598.60 L 1456.86 612.02 L 1462.76 624.97 L 1467.52 634.56 L 1472.48 643.76 L 1477.64 652.58 L 1482.98 661.02 L 1484.37 663.61 L 1484.99 665.92 L 1484.96 668.04 L 1484.33 670.07 L 1483.03 672.09 L 1480.90 674.13 L 1400.97 736.99 L 1399.83 738.12 L 1399.41 739.03 L 1399.47 739.82 L 1400.02 740.61 L 1401.28 741.47 L 1417.00 750.00 L 1418.51 751.08 L 1419.66 752.48 L 1420.42 754.12 L 1420.74 755.94 L 1420.57 757.79 L 1419.96 759.49 L 1418.93 760.98 L 1417.52 762.18 L 1392.82 778.05 L 1367.72 793.71 L 1350.82 803.91 L 1333.75 813.82 L 1316.53 823.44 L 1299.12 832.69 L 1281.56 841.47 L 1263.84 849.77 L 1250.39 855.66 L 1236.86 861.18 L 1223.24 866.33 L 1209.53 871.13 L 1195.68 875.52 L 1181.72 879.45 L 1167.66 882.91 L 1153.48 885.92 L 1151.60 886.51 L 1150.31 887.38 L 1149.49 888.54 L 1149.07 890.05 L 1149.11 892.06 L 1176.17 1096.88 L 1176.87 1099.76 L 1178.08 1102.20 L 1179.80 1104.28 L 1182.11 1106.04 L 1193.12 1113.27 L 1203.59 1120.71 L 1213.53 1128.37 L 1222.95 1136.23 L 1231.87 1144.32 L 1240.31 1152.62 L 1248.55 1161.38 L 1256.32 1170.32 L 1263.64 1179.43 L 1270.51 1188.72 L 1276.95 1198.20 L 1282.96 1207.87 L 1289.72 1219.84 L 1295.91 1232.00 L 1301.52 1244.38 L 1306.57 1256.97 L 1311.06 1269.80 L 1315.01 1282.81 L 1318.43 1295.97 L 1321.34 1309.28 L 1323.74 1322.75 L 1325.61 1336.41 L 1326.97 1350.09 L 1327.85 1363.85 L 1328.26 1377.70 L 1328.18 1391.65 L 1327.62 1405.70 L 1326.60 1419.68 L 1325.14 1433.66 L 1323.24 1447.64 L 1320.89 1461.64 L 1318.09 1475.66 L 1314.89 1489.56 L 1311.28 1503.36 L 1307.28 1517.08 L 1302.86 1530.73 L 1298.04 1544.29 L 1296.68 1548.68 L 1295.86 1552.90 L 1295.56 1556.97 L 1295.76 1560.93 L 1296.45 1564.81 L 1297.63 1568.64 L 1299.33 1572.44 L 1301.58 1576.24 L 1303.14 1578.19 L 1304.94 1579.71 L 1307.01 1580.82 L 1309.39 1581.55 L 1316.85 1582.95 L 1324.72 1584.17 L 1340.61 1586.52 L 1348.47 1587.95 L 1355.96 1589.69 L 1360.83 1591.13 L 1365.39 1592.83 L 1369.65 1594.77 L 1377.83 1599.31 L 1385.18 1604.06 L 1391.77 1609.03 L 1397.63 1614.22 L 1402.82 1619.61 L 1407.39 1625.23 L 1411.36 1631.08 L 1414.75 1637.18 L 1417.59 1643.55 L 1419.89 1650.22 L 1421.63 1657.22 L 1422.82 1664.58 L 1423.44 1672.34 L 1423.45 1680.53 L 1422.83 1689.20 L 1421.53 1698.39 L 1419.50 1708.15 L 1416.69 1718.51 L 1415.68 1721.13 L 1414.27 1723.37 L 1412.44 1725.30 L 1410.13 1726.94 L 1405.96 1729.13 L 1401.08 1731.21 L 1395.41 1733.18 L 1388.85 1735.01 L 1380.20 1736.93 L 1370.49 1738.62 L 1359.62 1740.05 L 1348.74 1741.12 L 1337.15 1741.98 L 1324.80 1742.59 L 1306.17 1743.09 L 1286.77 1743.17 L 1267.27 1742.88 L 1247.89 1742.30 L 1228.71 1741.47 L 1210.54 1740.50 L 1177.08 1738.32 L 1149.88 1736.26 L 1131.32 1734.85 L 1127.90 1734.94 L 1124.59 1735.63 L 1121.33 1736.93 L 1096.91 1748.75 L 1077.21 1757.71 L 1061.57 1764.29 L 1049.37 1768.89 L 1040.03 1771.89 L 1033.06 1773.62 L 1027.97 1774.40 L 986.45 1777.81 L 944.63 1780.68 L 902.50 1782.99 L 860.05 1784.76 L 817.29 1785.97 L 774.20 1786.63 L 730.78 1786.72 L 687.03 1786.25 L 642.94 1785.20 L 598.50 1783.58 L 553.71 1781.37 L 520.92 1779.75 L 484.93 1778.44 L 445.52 1777.49 L 402.51 1776.93 L 355.66 1776.79 L 353.70 1777.01 L 352.17 1777.60 L 350.98 1778.54 L 350.06 1779.87 L 349.41 1781.69 L 347.64 1790.08 L 346.38 1798.08 L 345.60 1805.71 L 345.29 1812.99 L 345.40 1819.95 L 345.94 1826.61 L 347.18 1834.77 L 348.99 1842.55 L 351.35 1849.98 L 354.26 1857.08 L 357.73 1863.88 L 361.71 1870.40 L 366.19 1876.67 L 371.18 1882.71 L 376.70 1888.54 L 382.78 1894.14 L 389.07 1899.29 L 395.83 1904.25 L 403.07 1909.03 L 410.82 1913.63 L 419.11 1918.03 L 429.50 1922.98 L 440.55 1927.66 L 452.28 1932.07 L 464.74 1936.20 L 477.15 1939.85 L 490.10 1943.25 L 503.60 1946.40 L 517.67 1949.27 L 536.40 1952.57 L 555.80 1955.45 L 575.91 1957.89 L 596.06 1959.87 L 616.59 1961.48 L 637.49 1962.70 L 658.41 1963.56 L 679.38 1964.11 L 700.41 1964.34 L 731.85 1964.16 L 762.68 1963.44 L 793.18 1962.23 L 822.31 1960.64 L 850.87 1958.71 L 877.33 1956.60 L 902.94 1954.26 L 925.74 1951.93 L 947.42 1949.50 L 965.55 1947.29 L 994.77 1943.31 L 997.12 1943.20 L 999.33 1943.53 L 1001.46 1944.29 L 1003.40 1945.44 L 1005.07 1946.93 L 1006.49 1948.81 L 1007.49 1950.93 L 1008.04 1953.10 L 1008.15 1955.36 L 1007.84 1957.59 L 1007.10 1959.71 L 1005.91 1961.73 L 994.02 1977.75 L 981.89 1993.27 L 969.53 2008.30 L 956.93 2022.84 L 944.08 2036.92 L 931.00 2050.53 L 917.43 2063.92 L 903.67 2076.80 L 889.71 2089.17 L 875.55 2101.04 L 861.20 2112.42 L 846.64 2123.33 L 831.66 2133.90 L 816.53 2143.94 L 801.24 2153.46 L 785.79 2162.46 L 770.17 2170.96 L 754.38 2178.96 L 738.27 2186.52 L 722.04 2193.53 L 705.68 2200.01 L 689.19 2205.95 L 672.55 2211.37 L 655.77 2216.26 L 638.81 2220.62 L 621.76 2224.42 L 604.60 2227.66 L 587.32 2230.35 L 569.91 2232.47 L 552.36 2234.05 L 534.84 2235.04 L 517.23 2235.45 L 499.53 2235.27 L 481.71 2234.49 L 463.77 2233.13 L 445.71 2231.16 L 427.89 2228.62 L 410.00 2225.46 L 392.00 2221.67 L 373.91 2217.24 L 355.70 2212.16 L 337.37 2206.41 L 319.51 2200.19 L 301.58 2193.29 L 283.56 2185.70 L 265.44 2177.41 L 247.22 2168.39 L 228.89 2158.64 L 227.19 2158.01 L 225.44 2157.95 L 223.76 2158.43 L 222.26 2159.45 L 221.16 2160.89 L 220.59 2162.55 L 220.55 2164.30 L 221.09 2166.03 L 260.64 2249.50 L 261.36 2251.53 L 261.70 2253.57 L 261.68 2255.66 L 261.29 2257.71 L 260.55 2259.65 L 259.44 2261.50 L 258.01 2263.11 L 256.39 2264.40 L 254.55 2265.39 L 252.56 2266.04 L 250.51 2266.33 L 248.36 2266.25 L 236.70 2264.37 L 225.38 2262.00 L 214.37 2259.14 L 203.66 2255.81 L 193.23 2252.00 L 182.93 2247.68 L 172.91 2242.94 L 163.17 2237.79 L 153.70 2232.23 L 144.49 2226.24 L 135.54 2219.86 L 126.86 2213.13 L 118.44 2206.04 L 110.29 2198.60 L 102.39 2190.79 L 92.96 2180.64 L 83.95 2170.05 L 75.37 2158.99 L 67.20 2147.47 L 59.52 2135.64 L 52.29 2123.47 L 45.50 2110.96 L 39.15 2098.10 L 33.30 2085.02 L 27.91 2071.73 L 22.98 2058.22 L 18.53 2044.48 L 14.55 2030.60 L 11.07 2016.64 L 8.08 2002.59 L 5.58 1988.44 L 3.56 1974.20 L 2.05 1960.02 L 1.05 1945.89 L 0.55 1931.80 L 0.57 1917.66 L 1.10 1903.71 L 2.16 1889.95 L 3.72 1876.36 L 5.84 1862.79 L 8.48 1849.54 L 11.65 1836.60 L 15.33 1823.94 L 19.63 1811.39 L 24.44 1799.28 L 29.76 1787.58 L 35.58 1776.28 L 41.92 1765.37 L 48.76 1754.82 L 56.13 1744.63 L 64.03 1734.78 L 72.47 1725.26 L 81.47 1716.06 L 91.05 1707.18 L 101.22 1698.62 L 112.01 1690.37 L 123.44 1682.43 L 135.54 1674.80 L 138.38 1672.82 L 140.82 1670.54 L 142.91 1667.96 L 144.62 1665.11 L 145.92 1662.09 L 146.80 1658.88 L 147.23 1655.58 L 147.19 1652.22 L 146.68 1648.78 L 124.61 1549.60 L 125.21 1541.53 L 125.27 1533.58 L 124.81 1525.72 L 123.81 1517.95 L 122.29 1510.24 L 120.24 1502.59 L 117.64 1494.96 L 114.79 1471.82 L 112.40 1448.64 L 110.49 1425.42 L 109.05 1402.14 L 108.07 1378.82 L 107.58 1355.48 L 107.57 1332.18 L 108.05 1308.93 L 109.02 1285.71 L 110.47 1262.53 L 112.43 1239.36 L 114.88 1216.32 L 117.85 1193.40 L 121.31 1170.61 L 125.27 1147.92 L 129.77 1125.30 L 134.78 1102.89 L 140.31 1080.68 L 146.36 1058.66 L 152.93 1036.84 L 160.05 1015.15 L 167.70 993.74 L 175.89 972.60 L 184.61 951.73 L 193.86 931.12 L 202.01 914.11 L 210.54 897.35 L 219.46 880.82 L 228.76 864.52 L 238.45 848.45 L 248.53 832.59 L 258.99 817.00 L 269.85 801.69 L 281.11 786.64 L 292.78 771.87 L 304.86 757.36 L 317.36 743.10 L 330.18 729.24 L 343.42 715.68 L 357.10 702.43 L 371.22 689.48 L 385.78 676.83 L 400.79 664.48 L 416.02 652.65 L 431.71 641.15 L 447.87 630.00 L 464.51 619.18 L 481.64 608.71 L 499.28 598.58 L 501.00 597.42 L 501.93 596.32 L 502.30 595.25 L 502.18 594.12 L 501.53 592.83 L 500.11 591.29 L 491.80 583.63 L 483.96 575.64 L 476.56 567.31 L 469.60 558.63 L 463.08 549.60 L 456.98 540.19 L 451.30 530.41 L 450.53 528.63 L 450.13 526.83 L 450.08 524.96 L 450.37 523.12 L 451.01 521.38 L 452.00 519.72 L 453.30 518.29 L 454.78 517.18 L 456.45 516.36 L 458.25 515.86 L 460.10 515.72 L 462.02 515.94 L 482.63 520.21 L 485.96 520.67 L 487.97 520.51 L 489.11 519.97 L 489.71 519.12 L 489.83 517.86 L 489.30 515.91 L 487.73 512.92 L 455.98 462.03 L 455.10 460.16 L 454.82 458.48 L 455.04 456.91 L 455.77 455.37 L 457.13 453.81 L 474.75 437.16 L 491.95 420.08 L 508.71 402.56 L 525.11 384.69 L 541.17 366.61 L 556.88 348.32 L 580.02 320.61 L 602.56 292.99 L 646.67 238.48 L 668.54 211.97 L 690.13 186.68 L 704.76 170.18 L 719.34 154.47 L 733.86 139.51 L 740.19 133.60 L 747.03 127.93 L 754.38 122.51 L 761.99 117.42 L 769.93 112.54 L 778.20 107.85 L 790.84 101.22 L 803.76 94.95 L 829.54 83.22 L 854.00 72.08 L 865.44 66.45 L 875.61 60.93 L 926.72 31.34 L 977.60 1.50 L 979.49 0.69 L 981.13 0.51 L 982.60 0.86 L 984.01 1.77 L 985.41 3.38 L 991.44 12.33 Z M 922.44 62.39 L 921.49 63.13 L 920.86 64.10 L 920.58 65.22 L 920.68 66.42 L 921.19 67.51 L 921.99 68.35 L 923.02 68.88 L 924.21 69.05 L 978.33 69.67 L 979.79 69.37 L 980.99 68.49 L 981.73 67.20 L 981.87 65.72 L 977.91 35.43 L 977.69 34.58 L 977.28 33.82 L 976.70 33.19 L 975.96 32.70 L 975.13 32.42 L 974.27 32.34 L 973.41 32.48 L 972.60 32.83 L 922.44 62.39 Z M 45.72 1821.96 L 41.65 1836.65 L 38.19 1851.53 L 35.32 1866.60 L 33.06 1881.88 L 31.41 1897.22 L 30.38 1912.61 L 29.94 1928.06 L 30.12 1943.58 L 30.91 1959.07 L 32.30 1974.47 L 34.30 1989.79 L 36.91 2005.03 L 39.44 2017.16 L 42.35 2029.13 L 45.66 2040.96 L 49.35 2052.65 L 53.43 2064.21 L 57.91 2075.64 L 62.78 2086.83 L 68.02 2097.79 L 73.66 2108.54 L 79.68 2119.08 L 86.11 2129.38 L 92.92 2139.38 L 100.11 2149.08 L 107.70 2158.48 L 115.68 2167.61 L 124.03 2176.37 L 132.77 2184.76 L 141.90 2192.78 L 151.45 2200.45 L 161.43 2207.77 L 171.65 2214.58 L 182.30 2220.95 L 193.38 2226.91 L 204.92 2232.43 L 216.93 2237.53 L 218.47 2237.88 L 220.01 2237.76 L 221.44 2237.19 L 222.68 2236.20 L 223.56 2234.87 L 223.99 2233.40 L 223.97 2231.86 L 223.48 2230.35 L 217.55 2218.81 L 209.68 2203.12 L 205.43 2194.32 L 201.07 2184.89 L 196.86 2175.31 L 192.93 2165.75 L 189.38 2156.20 L 186.49 2147.30 L 184.86 2141.35 L 183.70 2135.99 L 182.95 2131.18 L 182.61 2126.31 L 182.83 2122.29 L 183.52 2118.99 L 184.32 2117.17 L 185.49 2115.61 L 186.97 2114.35 L 188.75 2113.43 L 190.69 2112.94 L 192.65 2112.89 L 194.59 2113.28 L 196.42 2114.10 L 213.82 2124.22 L 231.22 2133.74 L 248.64 2142.65 L 266.07 2150.98 L 283.53 2158.73 L 301.01 2165.91 L 318.89 2172.65 L 336.73 2178.80 L 354.54 2184.36 L 372.33 2189.33 L 390.11 2193.72 L 407.88 2197.55 L 425.90 2200.85 L 443.85 2203.56 L 461.74 2205.68 L 479.57 2207.22 L 497.37 2208.18 L 515.13 2208.56 L 532.95 2208.36 L 550.68 2207.56 L 568.32 2206.17 L 585.89 2204.20 L 603.39 2201.62 L 620.83 2198.46 L 638.13 2194.71 L 655.31 2190.35 L 672.39 2185.38 L 689.37 2179.81 L 706.27 2173.61 L 723.10 2166.78 L 739.54 2159.44 L 755.86 2151.46 L 772.06 2142.85 L 788.14 2133.58 L 804.12 2123.65 L 820.00 2113.04 L 833.12 2103.68 L 846.13 2093.82 L 859.04 2083.46 L 871.84 2072.59 L 884.54 2061.19 L 897.14 2049.25 L 909.64 2036.77 L 960.01 1982.24 L 961.33 1980.50 L 961.80 1979.28 L 961.73 1978.38 L 961.20 1977.66 L 960.05 1977.05 L 957.93 1976.62 L 952.53 1976.28 L 946.82 1976.52 L 941.08 1977.17 L 935.40 1978.10 L 924.68 1980.19 L 919.75 1981.08 L 915.68 1981.61 L 884.32 1984.33 L 865.10 1985.77 L 842.33 1987.25 L 818.49 1988.55 L 791.94 1989.67 L 764.61 1990.46 L 735.37 1990.87 L 705.66 1990.79 L 674.86 1990.13 L 654.23 1989.33 L 633.49 1988.20 L 612.64 1986.73 L 591.83 1984.89 L 571.26 1982.63 L 550.95 1979.97 L 530.70 1976.82 L 511.06 1973.21 L 492.00 1969.13 L 477.73 1965.65 L 463.99 1961.88 L 450.77 1957.82 L 438.05 1953.49 L 425.34 1948.65 L 413.34 1943.51 L 402.00 1938.07 L 391.31 1932.33 L 382.84 1927.28 L 374.89 1922.01 L 367.46 1916.53 L 360.51 1910.85 L 354.02 1904.95 L 347.81 1898.60 L 342.17 1892.01 L 337.07 1885.15 L 332.48 1878.03 L 328.41 1870.62 L 325.46 1864.27 L 322.90 1857.68 L 320.74 1850.85 L 318.99 1843.74 L 317.65 1836.34 L 316.72 1828.64 L 316.27 1821.16 L 316.27 1813.35 L 316.73 1805.19 L 317.68 1796.63 L 319.15 1787.67 L 321.17 1778.28 L 323.48 1769.52 L 326.34 1760.33 L 329.78 1750.70 L 333.84 1740.58 L 338.57 1729.97 L 344.00 1718.83 L 345.83 1715.82 L 347.77 1713.58 L 349.84 1711.97 L 352.04 1710.90 L 354.43 1710.33 L 357.07 1710.22 L 360.02 1710.63 L 363.36 1711.64 L 365.28 1712.58 L 366.63 1713.68 L 367.52 1714.94 L 368.01 1716.42 L 368.11 1718.16 L 367.73 1720.28 L 361.38 1742.76 L 361.04 1744.77 L 361.17 1746.27 L 361.69 1747.39 L 362.59 1748.25 L 363.95 1748.88 L 365.96 1749.22 L 411.56 1751.96 L 457.11 1754.17 L 502.64 1755.86 L 548.13 1757.02 L 593.59 1757.65 L 639.02 1757.75 L 684.42 1757.33 L 718.04 1758.74 L 751.64 1759.62 L 785.20 1759.98 L 818.75 1759.81 L 852.28 1759.13 L 885.81 1757.92 L 919.32 1756.19 L 943.45 1754.46 L 965.48 1752.36 L 985.55 1749.93 L 1003.78 1747.20 L 1020.29 1744.20 L 1035.20 1740.98 L 1048.62 1737.55 L 1060.67 1733.95 L 1071.45 1730.20 L 1081.05 1726.32 L 1094.31 1720.22 L 1107.17 1713.70 L 1119.63 1706.74 L 1131.72 1699.36 L 1143.44 1691.53 L 1154.90 1683.23 L 1165.94 1674.55 L 1176.58 1665.52 L 1186.82 1656.12 L 1196.68 1646.34 L 1206.17 1636.17 L 1215.23 1625.70 L 1223.86 1614.94 L 1232.08 1603.87 L 1239.87 1592.48 L 1247.24 1580.81 L 1254.15 1568.90 L 1260.60 1556.76 L 1266.60 1544.37 L 1272.15 1531.73 L 1277.22 1518.90 L 1281.80 1505.90 L 1285.90 1492.73 L 1289.51 1479.38 L 1292.63 1465.83 L 1295.24 1452.20 L 1297.33 1438.47 L 1298.89 1424.63 L 1299.93 1410.65 L 1300.45 1396.55 L 1300.42 1382.49 L 1299.84 1368.38 L 1298.70 1354.20 L 1296.99 1339.96 L 1294.71 1325.63 L 1292.75 1313.98 L 1290.41 1302.58 L 1287.69 1291.40 L 1284.59 1280.45 L 1281.12 1269.71 L 1277.23 1259.03 L 1272.99 1248.66 L 1268.43 1238.59 L 1263.53 1228.80 L 1258.31 1219.29 L 1252.66 1209.93 L 1246.73 1200.94 L 1240.52 1192.31 L 1234.01 1184.03 L 1227.20 1176.08 L 1220.02 1168.40 L 1212.59 1161.14 L 1204.90 1154.29 L 1196.96 1147.84 L 1188.75 1141.79 L 1180.24 1136.13 L 1171.51 1130.93 L 1162.55 1126.21 L 1153.35 1121.93 L 1143.90 1118.11 L 1134.29 1114.80 L 1124.47 1112.01 L 1114.42 1109.74 L 1104.13 1107.98 L 1093.58 1106.75 L 1083.10 1106.10 L 1072.40 1106.02 L 1061.45 1106.54 L 1050.23 1107.66 L 1038.73 1109.41 L 1027.58 1111.69 L 1016.18 1114.64 L 1004.51 1118.29 L 992.56 1122.66 L 980.31 1127.79 L 962.57 1136.01 L 945.10 1144.71 L 927.89 1153.88 L 910.93 1163.53 L 894.22 1173.66 L 877.76 1184.27 L 861.53 1195.38 L 845.53 1206.99 L 843.88 1207.99 L 842.09 1208.61 L 840.20 1208.85 L 838.27 1208.68 L 836.42 1208.11 L 834.74 1207.19 L 833.29 1205.94 L 832.11 1204.39 L 830.99 1202.02 L 830.38 1199.63 L 830.23 1197.16 L 830.56 1194.58 L 831.42 1191.83 L 832.93 1188.67 L 835.08 1185.29 L 837.96 1181.66 L 841.69 1177.75 L 846.89 1173.04 L 853.13 1168.05 L 860.54 1162.76 L 868.13 1157.80 L 876.46 1152.71 L 885.60 1147.49 L 899.59 1140.02 L 914.48 1132.58 L 929.63 1125.44 L 944.81 1118.64 L 959.94 1112.16 L 974.22 1106.29 L 988.12 1100.80 L 1000.31 1096.18 L 1011.81 1091.99 L 1020.72 1088.91 L 1028.65 1086.36 L 1033.07 1085.12 L 1047.64 1083.36 L 1061.88 1082.27 L 1075.80 1081.81 L 1089.42 1081.97 L 1102.77 1082.74 L 1115.85 1084.12 L 1128.69 1086.10 L 1141.31 1088.66 L 1143.41 1088.92 L 1144.86 1088.70 L 1145.85 1088.12 L 1146.53 1087.17 L 1146.89 1085.72 L 1146.82 1083.56 L 1118.52 865.32 L 1118.18 860.22 L 1117.49 853.02 L 1115.60 836.15 L 1113.58 816.76 L 1112.74 806.73 L 1112.14 796.93 L 1111.86 787.32 L 1112.00 778.72 L 1112.39 773.09 L 1113.03 768.28 L 1113.88 764.20 L 1114.84 761.13 L 1115.94 758.71 L 1117.17 756.84 L 1118.52 755.41 L 1120.52 754.17 L 1122.72 753.51 L 1125.02 753.45 L 1127.31 754.01 L 1129.37 755.16 L 1131.00 756.77 L 1132.16 758.76 L 1132.77 761.03 L 1144.22 854.60 L 1144.69 856.55 L 1145.48 857.91 L 1146.59 858.84 L 1148.06 859.38 L 1150.05 859.49 L 1157.67 858.84 L 1165.58 857.78 L 1173.79 856.29 L 1182.31 854.34 L 1193.47 851.30 L 1204.95 847.67 L 1216.75 843.44 L 1228.40 838.83 L 1240.13 833.82 L 1251.94 828.42 L 1269.40 819.88 L 1286.47 810.94 L 1303.19 801.72 L 1318.93 792.65 L 1334.17 783.57 L 1347.89 775.19 L 1350.11 773.54 L 1351.50 771.95 L 1352.25 770.38 L 1352.47 768.79 L 1352.16 767.08 L 1351.25 765.18 L 1349.56 763.01 L 1348.44 762.13 L 1347.07 761.49 L 1345.37 761.09 L 1342.67 760.87 L 1339.52 760.89 L 1333.00 761.03 L 1329.77 760.81 L 1326.82 760.18 L 1325.00 759.44 L 1323.40 758.37 L 1321.98 756.95 L 1320.90 755.26 L 1320.05 753.00 L 1319.48 750.00 L 1319.50 747.71 L 1320.01 745.89 L 1320.99 744.42 L 1322.47 743.22 L 1324.58 742.30 L 1337.37 737.95 L 1349.79 733.12 L 1361.87 727.80 L 1373.62 722.00 L 1385.05 715.71 L 1396.17 708.93 L 1406.99 701.65 L 1417.53 693.87 L 1427.79 685.57 L 1437.77 676.74 L 1447.49 667.37 L 1448.75 665.78 L 1449.50 664.18 L 1449.80 662.52 L 1449.67 660.76 L 1449.05 658.83 L 1439.61 636.10 L 1430.77 613.22 L 1422.53 590.20 L 1414.88 567.02 L 1407.83 543.69 L 1401.36 520.18 L 1395.49 496.51 L 1390.20 472.65 L 1385.50 448.60 L 1381.39 424.35 L 1377.87 399.90 L 1377.71 396.72 L 1378.07 394.04 L 1378.90 391.75 L 1380.17 389.77 L 1381.92 388.07 L 1384.24 386.62 L 1387.23 385.43 L 1401.48 380.74 L 1415.00 375.65 L 1427.83 370.16 L 1439.99 364.29 L 1451.52 358.04 L 1462.44 351.43 L 1472.77 344.44 L 1482.56 337.09 L 1491.80 329.36 L 1500.53 321.26 L 1508.75 312.77 L 1516.49 303.90 L 1523.75 294.62 L 1530.54 284.92 L 1536.87 274.79 L 1542.74 264.21 L 1548.15 253.15 L 1553.11 241.60 L 1557.60 229.54 L 1561.61 216.93 L 1565.14 203.76 L 1568.18 189.98 L 1570.70 175.58 L 1572.69 160.53 L 1572.70 158.48 L 1572.31 156.98 L 1571.60 155.87 L 1570.56 155.07 L 1569.10 154.56 L 1567.07 154.39 L 1507.62 155.38 L 1448.19 155.75 L 1388.79 155.53 L 1329.41 154.69 L 1270.05 153.24 L 1260.70 152.71 L 1251.14 151.63 L 1241.36 149.99 L 1231.34 147.77 L 1221.07 144.94 L 1210.52 141.48 L 1196.62 136.75 L 1181.66 131.99 L 1165.60 127.21 L 1149.48 122.75 L 1132.60 118.44 L 1114.92 114.28 L 1097.18 110.48 L 1078.98 106.99 L 1060.31 103.81 L 1041.58 101.07 L 1022.68 98.78 L 1003.61 96.94 L 984.50 95.64 L 965.52 94.92 L 946.66 94.80 L 932.48 95.12 L 918.53 95.85 L 904.80 96.98 L 891.28 98.50 L 877.75 100.48 L 864.60 102.93 L 851.79 105.83 L 839.32 109.17 L 829.39 112.27 L 819.76 115.70 L 810.43 119.45 L 801.39 123.54 L 792.62 127.95 L 784.02 132.79 L 775.77 138.01 L 767.86 143.60 L 760.27 149.58 L 753.01 155.95 L 741.51 167.12 L 726.83 182.36 L 708.39 202.49 L 685.57 228.40 L 657.69 261.05 L 624.04 301.50 L 583.82 350.86 L 536.22 410.31 L 525.85 422.89 L 515.95 434.04 L 506.51 443.86 L 497.51 452.46 L 494.67 455.38 L 492.65 458.25 L 491.33 461.11 L 490.64 463.98 L 490.54 466.94 L 491.05 470.04 L 492.23 473.35 L 494.18 476.91 L 534.66 540.29 L 535.61 542.18 L 536.05 543.97 L 536.03 545.73 L 535.55 547.50 L 534.56 549.35 L 531.96 552.68 L 529.36 555.15 L 526.74 556.88 L 524.06 557.99 L 521.29 558.51 L 518.36 558.45 L 515.21 557.79 L 511.77 556.43 L 507.39 554.55 L 504.86 553.87 L 503.52 553.88 L 502.87 554.27 L 502.63 554.98 L 502.88 556.30 L 504.05 558.64 L 506.77 562.57 L 510.22 566.67 L 514.00 570.39 L 518.10 573.75 L 522.55 576.76 L 527.38 579.43 L 530.08 580.47 L 532.72 580.86 L 535.37 580.62 L 538.10 579.74 L 556.70 571.92 L 575.44 564.72 L 594.32 558.12 L 613.34 552.13 L 632.52 546.73 L 651.86 541.92 L 671.38 537.71 L 691.07 534.09 L 710.96 531.07 L 731.05 528.64 L 733.39 528.61 L 735.63 528.96 L 737.79 529.68 L 739.81 530.74 L 741.61 532.12 L 743.23 533.84 L 745.46 537.13 L 746.65 539.78 L 747.07 541.94 L 746.89 543.74 L 746.17 545.31 L 744.85 546.72 L 742.76 548.00 L 739.66 549.11 L 735.21 549.97 L 714.40 553.09 L 693.99 556.77 L 673.98 561.00 L 654.36 565.78 L 635.11 571.10 L 616.22 576.96 L 597.68 583.36 L 579.16 590.41 L 561.01 597.98 L 543.23 606.07 L 525.80 614.69 L 508.71 623.83 L 491.95 633.49 L 475.52 643.69 L 459.42 654.41 L 443.66 665.63 L 428.24 677.37 L 413.15 689.62 L 398.38 702.39 L 383.93 715.70 L 369.80 729.55 L 356.21 743.69 L 342.96 758.34 L 330.03 773.50 L 317.43 789.18 L 305.15 805.41 L 293.19 822.18 L 281.56 839.51 L 270.15 857.47 L 259.28 875.44 L 248.94 893.45 L 239.11 911.48 L 229.78 929.54 L 220.96 947.63 L 212.63 965.77 L 203.34 987.37 L 194.69 1009.02 L 186.66 1030.72 L 179.25 1052.50 L 172.45 1074.35 L 166.26 1096.27 L 160.61 1118.42 L 155.53 1140.65 L 151.01 1162.96 L 147.04 1185.36 L 143.63 1207.86 L 140.77 1230.46 L 138.45 1253.09 L 136.64 1275.81 L 135.33 1298.64 L 134.54 1321.57 L 134.25 1344.61 L 134.48 1367.77 L 135.19 1390.81 L 136.36 1413.95 L 137.99 1437.20 L 140.10 1460.56 L 142.67 1484.04 L 145.71 1507.64 L 149.90 1535.71 L 154.70 1563.93 L 160.11 1592.29 L 166.14 1620.82 L 172.80 1649.51 L 173.15 1650.46 L 173.70 1651.27 L 174.44 1651.94 L 175.33 1652.43 L 176.31 1652.70 L 177.32 1652.73 L 178.31 1652.54 L 179.25 1652.11 L 187.34 1647.53 L 199.51 1641.26 L 206.58 1637.89 L 214.35 1634.40 L 222.32 1631.08 L 230.44 1628.00 L 238.60 1625.27 L 246.37 1623.12 L 251.57 1621.99 L 256.35 1621.24 L 260.73 1620.85 L 265.11 1620.86 L 268.87 1621.35 L 272.09 1622.25 L 274.34 1623.31 L 276.23 1624.67 L 277.79 1626.35 L 279.06 1628.39 L 279.81 1630.53 L 280.08 1632.74 L 279.87 1634.96 L 279.18 1637.11 L 278.03 1639.06 L 276.52 1640.67 L 274.69 1641.92 L 272.60 1642.75 L 257.92 1646.94 L 243.43 1651.57 L 229.12 1656.64 L 214.99 1662.16 L 201.05 1668.16 L 187.45 1674.64 L 174.20 1681.60 L 161.27 1689.03 L 151.14 1695.38 L 141.33 1702.06 L 131.81 1709.08 L 122.60 1716.43 L 113.67 1724.12 L 105.07 1732.18 L 96.86 1740.60 L 89.01 1749.41 L 81.53 1758.60 L 74.42 1768.19 L 67.80 1778.04 L 61.63 1788.32 L 55.89 1799.06 L 50.59 1810.26 L 45.72 1821.96 Z M 1291.17 1600.91 L 1281.91 1591.54 L 1279.88 1589.91 L 1278.13 1589.15 L 1276.58 1589.05 L 1275.10 1589.53 L 1273.60 1590.70 L 1272.03 1592.79 L 1263.64 1606.01 L 1254.84 1618.77 L 1245.60 1631.10 L 1235.94 1642.99 L 1225.84 1654.46 L 1215.29 1665.53 L 1204.29 1676.19 L 1192.83 1686.45 L 1180.89 1696.33 L 1168.47 1705.82 L 1165.52 1708.28 L 1164.03 1710.02 L 1163.47 1711.25 L 1163.50 1712.16 L 1164.02 1712.92 L 1165.20 1713.58 L 1167.43 1714.11 L 1171.28 1714.35 L 1377.45 1715.70 L 1381.31 1715.38 L 1384.87 1714.48 L 1388.19 1713.00 L 1391.24 1711.00 L 1393.87 1708.59 L 1396.13 1705.74 L 1397.88 1702.56 L 1399.08 1699.10 L 1399.72 1695.30 L 1400.23 1685.73 L 1400.16 1677.24 L 1399.59 1669.72 L 1398.56 1663.08 L 1396.92 1656.32 L 1394.87 1650.32 L 1392.43 1644.99 L 1389.63 1640.28 L 1386.29 1635.82 L 1382.61 1631.81 L 1378.56 1628.20 L 1374.12 1625.00 L 1369.44 1622.20 L 1364.41 1619.65 L 1359.02 1617.36 L 1353.24 1615.35 L 1345.43 1613.10 L 1337.09 1611.11 L 1328.17 1609.41 L 1314.59 1607.26 L 1300.12 1605.28 L 1297.60 1604.73 L 1295.28 1603.82 L 1293.15 1602.56 L 1291.17 1600.91 Z" fill="#7b1d20" fill-rule="nonzero" group-id="1" id="形状" node-id="23" stroke="none" target-height="2265.82" target-width="1599.94" target-x="0.55" target-y="0.51"></path><path d="M 991.44 12.33 L 995.28 16.78 L 998.52 21.42 L 1001.21 26.27 L 1003.36 31.36 L 1004.99 36.71 L 1006.08 42.36 L 1006.64 48.34 L 1003.20 44.22 L 1000.19 39.80 L 997.60 35.06 L 995.43 29.98 L 993.66 24.52 L 992.33 18.65 L 991.44 12.33 Z" fill="#926f69" fill-rule="nonzero" group-id="1" id="路径" node-id="24" stroke="none" target-height="36.010002" target-width="15.200012" target-x="991.44" target-y="12.33"></path><path d="M 922.44 62.39 L 972.60 32.83 L 973.41 32.48 L 974.27 32.34 L 975.13 32.42 L 975.96 32.70 L 976.70 33.19 L 977.28 33.82 L 977.69 34.58 L 977.91 35.43 L 981.87 65.72 L 981.73 67.20 L 980.99 68.49 L 979.79 69.37 L 978.33 69.67 L 924.21 69.05 L 923.02 68.88 L 921.99 68.35 L 921.19 67.51 L 920.68 66.42 L 920.58 65.22 L 920.86 64.10 L 921.49 63.13 L 922.44 62.39 Z" fill="#926f69" fill-rule="nonzero" group-id="1" id="路径" node-id="25" stroke="none" target-height="37.329998" target-width="61.289978" target-x="920.58" target-y="32.34"></path><path d="M 1118.52 865.32 L 1112.16 865.39 L 1106.24 866.01 L 1100.70 867.15 L 1095.50 868.79 L 1090.43 870.95 L 1085.64 873.51 L 1081.12 876.47 L 1076.85 879.85 L 1071.55 884.85 L 1066.64 890.36 L 1062.11 896.42 L 1058.00 902.80 L 1054.24 909.47 L 1050.82 916.44 L 1047.74 923.58 L 1044.98 930.71 L 1042.54 937.86 L 1038.61 951.09 L 1035.30 964.32 L 1032.62 977.55 L 1030.54 990.80 L 1029.08 1004.08 L 1028.22 1017.40 L 1027.97 1030.78 L 1028.32 1044.23 L 1029.28 1057.76 L 1030.86 1071.38 L 1033.07 1085.12 L 1028.65 1086.36 L 1020.72 1088.91 L 1011.81 1091.99 L 1000.31 1096.18 L 988.12 1100.80 L 974.22 1106.29 L 959.94 1112.16 L 944.81 1118.64 L 929.63 1125.44 L 914.48 1132.58 L 899.59 1140.02 L 885.60 1147.49 L 876.46 1152.71 L 868.13 1157.80 L 860.54 1162.76 L 853.13 1168.05 L 846.89 1173.04 L 841.69 1177.75 L 837.96 1181.66 L 835.08 1185.29 L 832.93 1188.67 L 831.42 1191.83 L 830.56 1194.58 L 830.23 1197.16 L 830.38 1199.63 L 830.99 1202.02 L 832.11 1204.39 L 833.29 1205.94 L 834.74 1207.19 L 836.42 1208.11 L 838.27 1208.68 L 840.20 1208.85 L 842.09 1208.61 L 843.88 1207.99 L 845.53 1206.99 L 861.53 1195.38 L 877.76 1184.27 L 894.22 1173.66 L 910.93 1163.53 L 927.89 1153.88 L 945.10 1144.71 L 962.57 1136.01 L 980.31 1127.79 L 992.56 1122.66 L 1004.51 1118.29 L 1016.18 1114.64 L 1027.58 1111.69 L 1038.73 1109.41 L 1050.23 1107.66 L 1061.45 1106.54 L 1072.40 1106.02 L 1083.10 1106.10 L 1093.58 1106.75 L 1104.13 1107.98 L 1114.43 1109.74 L 1124.47 1112.01 L 1134.29 1114.80 L 1143.90 1118.11 L 1153.35 1121.93 L 1162.55 1126.21 L 1171.51 1130.93 L 1180.24 1136.13 L 1188.75 1141.79 L 1196.96 1147.84 L 1204.90 1154.29 L 1212.59 1161.14 L 1220.02 1168.40 L 1227.20 1176.08 L 1234.01 1184.03 L 1240.52 1192.31 L 1246.73 1200.94 L 1252.66 1209.93 L 1258.31 1219.29 L 1263.53 1228.80 L 1268.43 1238.59 L 1272.99 1248.66 L 1277.23 1259.03 L 1281.12 1269.71 L 1284.59 1280.45 L 1287.69 1291.40 L 1290.41 1302.58 L 1292.75 1313.98 L 1294.71 1325.63 L 1290.05 1341.05 L 1285.00 1356.08 L 1279.56 1370.74 L 1273.74 1385.03 L 1267.53 1398.97 L 1260.95 1412.57 L 1253.88 1426.08 L 1246.48 1439.25 L 1238.75 1452.11 L 1230.68 1464.64 L 1222.27 1476.87 L 1213.52 1488.79 L 1202.54 1502.80 L 1191.14 1516.39 L 1179.33 1529.56 L 1167.09 1542.33 L 1154.42 1554.69 L 1141.37 1566.66 L 1127.97 1578.24 L 1114.22 1589.43 L 1100.12 1600.24 L 1085.64 1610.68 L 1070.91 1620.70 L 1055.90 1630.36 L 1040.61 1639.65 L 1025.04 1648.57 L 1009.18 1657.14 L 989.10 1667.30 L 968.72 1676.90 L 948.03 1685.96 L 927.03 1694.46 L 905.81 1702.41 L 884.43 1709.82 L 862.89 1716.70 L 841.18 1723.04 L 819.31 1728.88 L 797.43 1734.20 L 775.54 1739.00 L 753.63 1743.28 L 716.93 1750.25 L 695.51 1754.68 L 684.42 1757.33 L 639.02 1757.75 L 593.59 1757.65 L 548.13 1757.02 L 502.64 1755.86 L 457.11 1754.17 L 411.56 1751.96 L 365.96 1749.22 L 363.95 1748.88 L 362.59 1748.25 L 361.69 1747.39 L 361.17 1746.27 L 361.04 1744.77 L 361.38 1742.76 L 367.73 1720.28 L 368.11 1718.16 L 368.01 1716.42 L 367.52 1714.94 L 366.63 1713.68 L 365.28 1712.58 L 363.36 1711.64 L 360.02 1710.63 L 357.07 1710.22 L 354.43 1710.33 L 352.04 1710.90 L 349.84 1711.97 L 347.77 1713.58 L 345.83 1715.82 L 344.00 1718.83 L 338.57 1729.97 L 333.84 1740.58 L 329.78 1750.70 L 326.34 1760.33 L 323.48 1769.52 L 321.17 1778.28 L 319.15 1787.67 L 317.68 1796.63 L 316.73 1805.19 L 316.27 1813.35 L 316.27 1821.16 L 316.72 1828.64 L 317.65 1836.34 L 318.99 1843.74 L 320.74 1850.85 L 322.90 1857.68 L 325.46 1864.27 L 328.41 1870.62 L 332.48 1878.03 L 337.07 1885.15 L 342.17 1892.01 L 347.81 1898.60 L 354.02 1904.95 L 360.51 1910.85 L 367.46 1916.53 L 374.89 1922.01 L 382.84 1927.28 L 391.31 1932.33 L 402.00 1938.07 L 413.34 1943.51 L 425.34 1948.65 L 438.05 1953.49 L 450.77 1957.82 L 463.99 1961.88 L 477.73 1965.65 L 492.00 1969.13 L 511.06 1973.21 L 530.70 1976.82 L 550.95 1979.97 L 571.26 1982.63 L 591.83 1984.89 L 612.64 1986.73 L 633.49 1988.20 L 654.23 1989.33 L 674.86 1990.13 L 705.66 1990.79 L 735.37 1990.87 L 764.61 1990.46 L 791.94 1989.67 L 818.49 1988.55 L 842.33 1987.25 L 865.10 1985.77 L 884.32 1984.33 L 915.68 1981.61 L 919.75 1981.08 L 924.68 1980.19 L 935.40 1978.10 L 941.08 1977.17 L 946.82 1976.52 L 952.53 1976.28 L 957.93 1976.62 L 960.05 1977.05 L 961.20 1977.66 L 961.73 1978.38 L 961.80 1979.28 L 961.33 1980.50 L 960.01 1982.24 L 909.64 2036.77 L 887.24 2048.02 L 864.71 2058.84 L 842.04 2069.24 L 819.24 2079.22 L 796.21 2088.78 L 773.18 2097.79 L 750.13 2106.26 L 727.07 2114.19 L 703.78 2121.63 L 680.59 2128.41 L 657.51 2134.55 L 634.53 2140.05 L 615.95 2144.03 L 597.51 2147.52 L 579.20 2150.53 L 561.03 2153.07 L 542.99 2155.15 L 524.77 2156.76 L 506.75 2157.83 L 488.92 2158.36 L 471.28 2158.37 L 453.82 2157.86 L 436.27 2156.77 L 418.97 2155.09 L 401.90 2152.82 L 385.05 2149.97 L 368.40 2146.53 L 354.59 2143.17 L 340.97 2139.35 L 327.51 2135.08 L 314.22 2130.36 L 301.09 2125.17 L 288.11 2119.52 L 275.39 2113.44 L 262.85 2106.84 L 250.47 2099.73 L 238.27 2092.09 L 226.21 2083.92 L 214.31 2075.20 L 202.91 2066.18 L 191.68 2056.57 L 180.62 2046.36 L 169.72 2035.53 L 158.98 2024.06 L 148.40 2011.93 L 138.51 1999.75 L 128.80 1986.88 L 119.26 1973.31 L 109.91 1959.00 L 100.73 1943.93 L 91.75 1928.06 L 83.54 1912.48 L 75.54 1896.09 L 67.75 1878.88 L 60.18 1860.81 L 52.83 1841.85 L 45.72 1821.96 L 50.59 1810.26 L 55.89 1799.06 L 61.63 1788.32 L 67.80 1778.04 L 74.42 1768.19 L 81.53 1758.60 L 89.01 1749.41 L 96.86 1740.60 L 105.07 1732.18 L 113.67 1724.13 L 122.60 1716.43 L 131.81 1709.08 L 141.33 1702.06 L 151.14 1695.38 L 161.27 1689.03 L 174.20 1681.60 L 187.45 1674.64 L 201.05 1668.16 L 214.99 1662.16 L 229.12 1656.64 L 243.43 1651.57 L 257.92 1646.94 L 272.60 1642.75 L 274.69 1641.92 L 276.52 1640.67 L 278.03 1639.06 L 279.18 1637.11 L 279.87 1634.96 L 280.08 1632.74 L 279.81 1630.53 L 279.06 1628.39 L 277.79 1626.35 L 276.23 1624.67 L 274.34 1623.31 L 272.09 1622.25 L 268.87 1621.35 L 265.11 1620.86 L 260.73 1620.85 L 256.35 1621.24 L 251.57 1621.99 L 246.37 1623.12 L 238.60 1625.27 L 230.44 1628.00 L 222.32 1631.08 L 214.35 1634.40 L 206.58 1637.89 L 199.51 1641.26 L 187.34 1647.53 L 179.25 1652.11 L 178.31 1652.54 L 177.32 1652.73 L 176.31 1652.70 L 175.33 1652.43 L 174.44 1651.94 L 173.70 1651.27 L 173.15 1650.46 L 172.80 1649.51 L 166.14 1620.82 L 160.11 1592.29 L 154.70 1563.93 L 149.90 1535.71 L 145.71 1507.64 L 142.67 1484.04 L 140.10 1460.56 L 137.99 1437.20 L 136.36 1413.95 L 135.19 1390.81 L 134.48 1367.77 L 134.25 1344.61 L 134.54 1321.57 L 135.33 1298.64 L 136.64 1275.81 L 138.45 1253.09 L 140.77 1230.46 L 143.63 1207.86 L 147.04 1185.36 L 151.01 1162.96 L 155.53 1140.65 L 160.61 1118.42 L 166.26 1096.27 L 172.45 1074.35 L 179.25 1052.50 L 186.66 1030.72 L 194.69 1009.02 L 203.34 987.37 L 212.63 965.77 L 220.96 947.63 L 229.78 929.54 L 239.11 911.48 L 248.94 893.45 L 259.28 875.44 L 270.15 857.47 L 281.56 839.51 L 293.19 822.18 L 305.15 805.41 L 317.43 789.18 L 330.03 773.50 L 342.96 758.34 L 356.21 743.69 L 369.80 729.55 L 383.93 715.70 L 398.38 702.39 L 413.15 689.62 L 428.24 677.37 L 443.66 665.63 L 459.42 654.41 L 475.52 643.69 L 491.95 633.49 L 508.71 623.83 L 525.80 614.69 L 543.23 606.07 L 561.01 597.98 L 579.16 590.41 L 597.68 583.36 L 616.22 576.96 L 635.11 571.10 L 654.36 565.78 L 673.98 561.00 L 693.99 556.77 L 714.40 553.09 L 735.21 549.97 L 739.66 549.11 L 742.76 548.00 L 744.85 546.72 L 746.17 545.31 L 746.89 543.74 L 747.07 541.94 L 746.65 539.78 L 745.46 537.13 L 743.23 533.84 L 741.61 532.12 L 739.81 530.74 L 737.79 529.68 L 735.63 528.96 L 733.39 528.61 L 731.05 528.64 L 710.96 531.07 L 691.07 534.09 L 671.38 537.71 L 651.86 541.92 L 632.52 546.73 L 613.34 552.13 L 594.32 558.12 L 575.44 564.72 L 556.70 571.92 L 538.10 579.74 L 535.37 580.62 L 532.72 580.86 L 530.08 580.47 L 527.38 579.43 L 522.55 576.76 L 518.10 573.75 L 514.00 570.39 L 510.22 566.67 L 506.77 562.57 L 504.05 558.64 L 502.88 556.30 L 502.63 554.98 L 502.87 554.27 L 503.52 553.88 L 504.86 553.87 L 507.39 554.55 L 511.77 556.43 L 515.21 557.79 L 518.36 558.45 L 521.29 558.51 L 524.06 557.98 L 526.74 556.88 L 529.36 555.15 L 531.96 552.68 L 534.56 549.35 L 535.55 547.50 L 536.03 545.73 L 536.05 543.97 L 535.61 542.18 L 534.66 540.29 L 494.18 476.91 L 492.23 473.35 L 491.05 470.04 L 490.54 466.94 L 490.64 463.98 L 491.33 461.11 L 492.65 458.25 L 494.67 455.38 L 497.51 452.46 L 506.51 443.86 L 515.95 434.04 L 525.85 422.89 L 536.22 410.31 L 583.82 350.86 L 624.04 301.50 L 657.69 261.05 L 685.57 228.40 L 708.39 202.49 L 726.83 182.36 L 741.51 167.12 L 753.01 155.95 L 760.27 149.58 L 767.86 143.60 L 775.77 138.01 L 784.02 132.79 L 792.62 127.95 L 801.39 123.54 L 810.43 119.45 L 819.76 115.70 L 829.39 112.27 L 839.32 109.17 L 851.79 105.83 L 864.60 102.93 L 877.75 100.48 L 891.28 98.50 L 904.80 96.98 L 918.53 95.85 L 932.48 95.12 L 946.66 94.80 L 965.52 94.92 L 984.50 95.64 L 1003.61 96.94 L 1022.68 98.78 L 1041.58 101.07 L 1060.31 103.81 L 1078.98 106.99 L 1097.18 110.48 L 1114.92 114.28 L 1132.60 118.44 L 1149.48 122.75 L 1165.60 127.21 L 1181.66 131.99 L 1196.62 136.75 L 1210.52 141.48 L 1221.07 144.94 L 1231.34 147.77 L 1241.36 149.99 L 1251.14 151.63 L 1260.70 152.71 L 1270.05 153.24 L 1329.41 154.69 L 1388.79 155.53 L 1448.19 155.75 L 1507.62 155.38 L 1567.07 154.39 L 1569.10 154.56 L 1570.56 155.07 L 1571.60 155.87 L 1572.31 156.98 L 1572.70 158.48 L 1572.69 160.53 L 1570.70 175.58 L 1568.18 189.98 L 1565.14 203.76 L 1561.61 216.93 L 1557.59 229.54 L 1553.11 241.60 L 1548.15 253.15 L 1542.74 264.21 L 1536.87 274.79 L 1530.54 284.92 L 1523.75 294.62 L 1516.49 303.90 L 1508.75 312.77 L 1500.53 321.26 L 1491.80 329.36 L 1482.56 337.09 L 1472.77 344.44 L 1462.44 351.43 L 1451.52 358.04 L 1439.99 364.29 L 1427.83 370.16 L 1415.00 375.65 L 1401.48 380.74 L 1387.23 385.43 L 1384.24 386.62 L 1381.92 388.07 L 1380.17 389.77 L 1378.90 391.75 L 1378.07 394.04 L 1377.71 396.72 L 1377.87 399.90 L 1381.39 424.35 L 1385.50 448.60 L 1390.20 472.65 L 1395.49 496.50 L 1401.36 520.18 L 1407.83 543.69 L 1414.88 567.02 L 1422.53 590.20 L 1430.77 613.22 L 1439.61 636.10 L 1449.05 658.83 L 1449.67 660.76 L 1449.80 662.52 L 1449.50 664.18 L 1448.75 665.78 L 1447.49 667.37 L 1437.77 676.74 L 1427.79 685.57 L 1417.53 693.87 L 1406.99 701.65 L 1396.17 708.93 L 1385.05 715.71 L 1373.62 722.00 L 1361.87 727.80 L 1349.79 733.12 L 1337.37 737.95 L 1324.58 742.30 L 1322.47 743.22 L 1320.99 744.42 L 1320.01 745.89 L 1319.50 747.71 L 1319.48 750.00 L 1320.05 753.00 L 1320.90 755.26 L 1321.98 756.95 L 1323.40 758.37 L 1325.00 759.44 L 1326.82 760.18 L 1329.77 760.81 L 1333.00 761.03 L 1339.52 760.89 L 1342.67 760.87 L 1345.37 761.09 L 1347.07 761.49 L 1348.44 762.13 L 1349.56 763.01 L 1351.25 765.18 L 1352.16 767.08 L 1352.47 768.79 L 1352.25 770.38 L 1351.50 771.95 L 1350.11 773.54 L 1347.89 775.19 L 1334.17 783.57 L 1318.93 792.65 L 1303.19 801.72 L 1286.47 810.94 L 1269.40 819.88 L 1251.94 828.42 L 1240.13 833.82 L 1228.40 838.83 L 1216.75 843.44 L 1204.95 847.67 L 1193.47 851.30 L 1182.31 854.34 L 1173.79 856.29 L 1165.58 857.78 L 1157.67 858.84 L 1150.05 859.49 L 1148.06 859.38 L 1146.59 858.84 L 1145.48 857.91 L 1144.69 856.55 L 1144.22 854.60 L 1132.77 761.03 L 1132.16 758.76 L 1131.00 756.77 L 1129.37 755.16 L 1127.31 754.01 L 1125.02 753.45 L 1122.72 753.51 L 1120.52 754.17 L 1118.52 755.41 L 1117.17 756.84 L 1115.94 758.71 L 1114.84 761.13 L 1113.88 764.20 L 1113.03 768.28 L 1112.39 773.09 L 1112.00 778.72 L 1111.86 787.32 L 1112.14 796.93 L 1112.74 806.73 L 1113.58 816.76 L 1115.60 836.15 L 1117.49 853.02 L 1118.18 860.22 L 1118.52 865.32 Z" fill="#926f69" fill-rule="nonzero" group-id="1" id="路径" node-id="26" stroke="none" target-height="2063.57" target-width="1526.98" target-x="45.72" target-y="94.8"></path><path d="M 1118.52 865.32 L 1146.82 1083.56 L 1146.89 1085.72 L 1146.53 1087.17 L 1145.85 1088.12 L 1144.86 1088.70 L 1143.41 1088.92 L 1141.31 1088.66 L 1128.69 1086.10 L 1115.85 1084.12 L 1102.77 1082.74 L 1089.42 1081.97 L 1075.80 1081.81 L 1061.88 1082.27 L 1047.64 1083.36 L 1033.07 1085.12 L 1030.86 1071.38 L 1029.28 1057.76 L 1028.32 1044.23 L 1027.97 1030.78 L 1028.22 1017.40 L 1029.08 1004.08 L 1030.54 990.80 L 1032.62 977.55 L 1035.30 964.32 L 1038.61 951.09 L 1042.54 937.86 L 1044.98 930.71 L 1047.74 923.58 L 1050.82 916.44 L 1054.24 909.47 L 1058.00 902.81 L 1062.11 896.42 L 1066.64 890.36 L 1071.55 884.85 L 1076.85 879.85 L 1081.12 876.47 L 1085.64 873.51 L 1090.43 870.95 L 1095.50 868.79 L 1100.70 867.15 L 1106.24 866.01 L 1112.16 865.39 L 1118.52 865.32 Z" fill="#fcf8f5" fill-rule="nonzero" group-id="1" id="路径" node-id="27" stroke="none" target-height="223.60004" target-width="118.920044" target-x="1027.97" target-y="865.32"></path><path d="M 1294.71 1325.63 L 1296.99 1339.96 L 1298.70 1354.20 L 1299.84 1368.38 L 1300.42 1382.49 L 1300.45 1396.55 L 1299.93 1410.65 L 1298.89 1424.63 L 1297.33 1438.47 L 1295.24 1452.20 L 1292.63 1465.83 L 1289.51 1479.38 L 1285.90 1492.73 L 1281.80 1505.90 L 1277.22 1518.90 L 1272.15 1531.73 L 1266.60 1544.37 L 1260.60 1556.76 L 1254.15 1568.90 L 1247.24 1580.81 L 1239.87 1592.48 L 1232.07 1603.87 L 1223.86 1614.94 L 1215.23 1625.70 L 1206.17 1636.17 L 1196.68 1646.34 L 1186.82 1656.12 L 1176.58 1665.52 L 1165.94 1674.55 L 1154.90 1683.23 L 1143.44 1691.53 L 1131.72 1699.36 L 1119.63 1706.74 L 1107.17 1713.70 L 1094.31 1720.22 L 1081.05 1726.32 L 1071.45 1730.20 L 1060.67 1733.95 L 1048.62 1737.55 L 1035.20 1740.98 L 1020.29 1744.20 L 1003.78 1747.20 L 985.55 1749.93 L 965.48 1752.36 L 943.45 1754.46 L 919.32 1756.19 L 885.81 1757.92 L 852.28 1759.13 L 818.75 1759.81 L 785.20 1759.98 L 751.64 1759.62 L 718.04 1758.74 L 684.42 1757.33 L 695.51 1754.68 L 716.93 1750.25 L 753.63 1743.28 L 775.54 1739.00 L 797.43 1734.20 L 819.31 1728.88 L 841.18 1723.04 L 862.89 1716.70 L 884.43 1709.82 L 905.81 1702.41 L 927.03 1694.46 L 948.03 1685.96 L 968.72 1676.90 L 989.10 1667.30 L 1009.18 1657.14 L 1025.04 1648.57 L 1040.61 1639.65 L 1055.90 1630.36 L 1070.91 1620.70 L 1085.64 1610.68 L 1100.12 1600.24 L 1114.22 1589.43 L 1127.97 1578.24 L 1141.37 1566.66 L 1154.42 1554.70 L 1167.09 1542.33 L 1179.33 1529.56 L 1191.14 1516.39 L 1202.54 1502.80 L 1213.52 1488.79 L 1222.27 1476.87 L 1230.68 1464.64 L 1238.75 1452.11 L 1246.48 1439.25 L 1253.88 1426.08 L 1260.95 1412.57 L 1267.53 1398.97 L 1273.74 1385.03 L 1279.56 1370.74 L 1285.00 1356.08 L 1290.05 1341.05 L 1294.71 1325.63 Z" fill="#fcf8f5" fill-rule="nonzero" group-id="1" id="路径" node-id="28" stroke="none" target-height="434.34998" target-width="616.02997" target-x="684.42" target-y="1325.63"></path><path d="M 117.64 1494.96 L 120.24 1502.59 L 122.29 1510.24 L 123.81 1517.95 L 124.81 1525.72 L 125.27 1533.58 L 125.21 1541.53 L 124.61 1549.60 L 117.64 1494.96 Z" fill="#926f69" fill-rule="nonzero" group-id="1" id="路径" node-id="29" stroke="none" target-height="54.640015" target-width="7.6299973" target-x="117.64" target-y="1494.96"></path><path d="M 1300.12 1605.28 L 1314.59 1607.26 L 1328.17 1609.41 L 1337.09 1611.11 L 1345.43 1613.10 L 1353.24 1615.35 L 1359.02 1617.36 L 1364.41 1619.65 L 1369.44 1622.20 L 1374.12 1625.00 L 1378.56 1628.21 L 1382.61 1631.81 L 1386.29 1635.82 L 1389.63 1640.28 L 1392.43 1644.99 L 1394.87 1650.32 L 1396.92 1656.32 L 1398.56 1663.08 L 1399.59 1669.72 L 1400.16 1677.24 L 1400.23 1685.73 L 1399.72 1695.30 L 1399.08 1699.10 L 1397.88 1702.56 L 1396.13 1705.74 L 1393.87 1708.59 L 1391.24 1711.00 L 1388.19 1713.00 L 1384.87 1714.48 L 1381.31 1715.38 L 1377.45 1715.70 L 1171.28 1714.35 L 1167.43 1714.11 L 1165.20 1713.58 L 1164.02 1712.92 L 1163.50 1712.16 L 1163.47 1711.25 L 1164.03 1710.02 L 1165.52 1708.28 L 1168.47 1705.82 L 1180.89 1696.33 L 1192.83 1686.45 L 1204.29 1676.19 L 1215.29 1665.53 L 1225.84 1654.46 L 1235.94 1642.99 L 1245.60 1631.10 L 1254.84 1618.77 L 1263.64 1606.01 L 1272.03 1592.79 L 1273.60 1590.70 L 1275.10 1589.53 L 1276.58 1589.05 L 1278.13 1589.15 L 1279.88 1589.91 L 1281.91 1591.54 L 1291.17 1600.91 L 1293.15 1602.56 L 1295.28 1603.82 L 1297.60 1604.73 L 1300.12 1605.28 Z" fill="#fcf8f5" fill-rule="nonzero" group-id="1" id="路径" node-id="30" stroke="none" target-height="126.6499" target-width="236.76001" target-x="1163.47" target-y="1589.05"></path><path d="M 45.72 1821.96 L 52.83 1841.85 L 60.18 1860.81 L 67.75 1878.88 L 75.54 1896.09 L 83.54 1912.48 L 91.75 1928.06 L 100.73 1943.93 L 109.91 1959.00 L 119.26 1973.31 L 128.80 1986.88 L 138.51 1999.75 L 148.40 2011.93 L 158.98 2024.06 L 169.72 2035.53 L 180.62 2046.36 L 191.68 2056.57 L 202.91 2066.18 L 214.31 2075.20 L 226.21 2083.92 L 238.27 2092.09 L 250.47 2099.73 L 262.85 2106.84 L 275.39 2113.44 L 288.11 2119.52 L 301.09 2125.17 L 314.22 2130.36 L 327.51 2135.08 L 340.97 2139.35 L 354.59 2143.17 L 368.40 2146.53 L 385.05 2149.97 L 401.90 2152.82 L 418.97 2155.09 L 436.27 2156.77 L 453.82 2157.86 L 471.28 2158.37 L 488.92 2158.36 L 506.75 2157.83 L 524.77 2156.76 L 542.99 2155.15 L 561.03 2153.07 L 579.20 2150.53 L 597.51 2147.52 L 615.95 2144.03 L 634.53 2140.05 L 657.51 2134.55 L 680.59 2128.41 L 703.78 2121.63 L 727.07 2114.19 L 750.13 2106.26 L 773.18 2097.79 L 796.21 2088.78 L 819.24 2079.22 L 842.04 2069.24 L 864.71 2058.84 L 887.24 2048.02 L 909.64 2036.77 L 897.14 2049.25 L 884.54 2061.19 L 871.84 2072.59 L 859.04 2083.46 L 846.13 2093.82 L 833.12 2103.68 L 820.00 2113.04 L 804.12 2123.65 L 788.14 2133.58 L 772.06 2142.85 L 755.86 2151.46 L 739.54 2159.44 L 723.10 2166.78 L 706.27 2173.61 L 689.37 2179.81 L 672.39 2185.39 L 655.31 2190.35 L 638.13 2194.71 L 620.83 2198.46 L 603.39 2201.62 L 585.89 2204.20 L 568.32 2206.17 L 550.68 2207.56 L 532.95 2208.36 L 515.13 2208.56 L 497.37 2208.18 L 479.57 2207.22 L 461.74 2205.68 L 443.85 2203.56 L 425.90 2200.85 L 407.88 2197.55 L 390.11 2193.72 L 372.33 2189.33 L 354.54 2184.36 L 336.73 2178.80 L 318.89 2172.65 L 301.01 2165.91 L 283.53 2158.73 L 266.07 2150.98 L 248.64 2142.65 L 231.22 2133.74 L 213.82 2124.22 L 196.42 2114.10 L 194.59 2113.28 L 192.65 2112.89 L 190.69 2112.94 L 188.75 2113.43 L 186.97 2114.35 L 185.49 2115.61 L 184.32 2117.17 L 183.52 2118.99 L 182.83 2122.29 L 182.61 2126.31 L 182.95 2131.18 L 183.70 2135.99 L 184.86 2141.35 L 186.49 2147.30 L 189.38 2156.20 L 192.93 2165.75 L 196.86 2175.31 L 201.07 2184.89 L 205.43 2194.32 L 209.68 2203.12 L 217.55 2218.81 L 223.48 2230.35 L 223.97 2231.86 L 223.99 2233.40 L 223.56 2234.87 L 222.68 2236.20 L 221.44 2237.19 L 220.01 2237.76 L 218.47 2237.88 L 216.93 2237.53 L 204.92 2232.43 L 193.38 2226.91 L 182.30 2220.95 L 171.65 2214.58 L 161.43 2207.77 L 151.45 2200.45 L 141.90 2192.78 L 132.77 2184.76 L 124.03 2176.37 L 115.68 2167.61 L 107.70 2158.48 L 100.11 2149.08 L 92.92 2139.38 L 86.11 2129.38 L 79.68 2119.08 L 73.66 2108.54 L 68.02 2097.79 L 62.78 2086.83 L 57.91 2075.64 L 53.43 2064.21 L 49.35 2052.65 L 45.66 2040.96 L 42.35 2029.13 L 39.44 2017.16 L 36.91 2005.03 L 34.30 1989.79 L 32.30 1974.47 L 30.91 1959.07 L 30.12 1943.58 L 29.94 1928.06 L 30.38 1912.61 L 31.41 1897.22 L 33.06 1881.88 L 35.32 1866.60 L 38.19 1851.53 L 41.65 1836.65 L 45.72 1821.96 Z" fill="#fcf8f5" fill-rule="nonzero" group-id="1" id="路径" node-id="31" stroke="none" target-height="415.91992" target-width="879.7" target-x="29.94" target-y="1821.96"></path></g></svg>